<svg width="300" height="140" viewBox="0 0 300 140" fill="none" xmlns="http://www.w3.org/2000/svg">
<path d="M62.4509 119C90.8666 119 113.902 95.9428 113.902 67.5C113.902 39.0573 90.8666 16 62.4509 16C34.0353 16 11 39.0573 11 67.5C11 95.9428 34.0353 119 62.4509 119Z" fill="#F25D00"/>
<path d="M43.1206 56.7668V72.4691C43.1206 73.0095 43.5584 73.4476 44.0983 73.4476H59.7856C60.3256 73.4476 60.7632 73.0095 60.7632 72.4691V56.7668C60.7632 56.2263 60.3256 55.7883 59.7856 55.7883H44.0983C43.5584 55.7883 43.1206 56.2263 43.1206 56.7668Z" fill="white"/>
<path d="M43.1255 78.8342V94.5365C43.1255 95.077 43.563 95.515 44.103 95.515H59.7903C60.3303 95.515 60.7679 95.077 60.7679 94.5365V78.8342C60.7679 78.2938 60.3303 77.8557 59.7903 77.8557H44.103C43.563 77.8557 43.1255 78.2938 43.1255 78.8342Z" fill="white"/>
<path d="M65.1726 78.8358V94.5382C65.1726 95.0786 65.6103 95.5167 66.1502 95.5167H81.8376C82.3775 95.5167 82.8151 95.0786 82.8151 94.5382V78.8358C82.8151 78.2954 82.3775 77.8573 81.8376 77.8573H66.1502C65.6103 77.8573 65.1726 78.2954 65.1726 78.8358Z" fill="white"/>
<path d="M65.1726 56.7619V72.4643C65.1726 73.0047 65.6103 73.4428 66.1502 73.4428H81.8376C82.3775 73.4428 82.8151 73.0047 82.8151 72.4643V56.7619C82.8151 56.2215 82.3775 55.7834 81.8376 55.7834H66.1502C65.6103 55.7834 65.1726 56.2215 65.1726 56.7619Z" fill="white"/>
<path d="M59.7856 33.716H44.0983C43.5584 33.716 43.1206 34.1541 43.1206 34.6945V50.3969C43.1206 50.9373 43.5584 51.3754 44.0983 51.3754H59.7856C60.3256 51.3754 60.7632 50.9373 60.7632 50.3969V34.6945C60.7632 34.1541 60.3256 33.716 59.7856 33.716Z" fill="white"/>
<path d="M146.059 43.3594H170.416C179.232 43.3594 183.743 49.223 183.743 55.6653C183.743 61.7442 180.136 65.7982 175.762 66.7413C180.691 67.5357 184.647 72.5332 184.647 78.6118C184.647 85.8488 179.998 91.6406 171.183 91.6406H146.063V43.3594H146.059ZM168.264 62.754C171.596 62.754 173.679 60.5089 173.679 57.398C173.679 54.2867 171.596 52.1134 168.264 52.1134H155.911V62.754H168.264ZM168.613 82.8814C172.362 82.8814 174.583 80.6364 174.583 77.1614C174.583 74.1219 172.5 71.5131 168.613 71.5131H155.916V82.8763H168.613V82.8814Z" fill="black"/>
<path d="M248.96 43.3594H273.318C282.134 43.3594 286.644 49.223 286.644 55.6653C286.644 61.7442 283.038 65.7982 278.664 66.7413C283.593 67.5357 287.549 72.5332 287.549 78.6118C287.549 85.8488 282.9 91.6406 274.085 91.6406H248.965V43.3594H248.96ZM271.166 62.754C274.497 62.754 276.581 60.5089 276.581 57.398C276.581 54.2867 274.497 52.1134 271.166 52.1134H258.813V62.754H271.166ZM271.515 82.8814C275.264 82.8814 277.485 80.6364 277.485 77.1614C277.485 74.1219 275.402 71.5131 271.515 71.5131H258.817V82.8763H271.515V82.8814Z" fill="black"/>
<path d="M216.767 43.3594C231.68 43.3594 242.529 53.4344 242.529 67.5C242.529 81.5656 231.675 91.6406 216.767 91.6406C201.859 91.6406 191.078 81.5656 191.078 67.5C191.078 53.4344 201.932 43.3594 216.767 43.3594ZM216.767 52.1739C207.689 52.1739 201.854 58.7501 201.854 67.4952C201.854 76.2402 207.689 82.8161 216.767 82.8161C225.845 82.8161 231.753 76.1707 231.753 67.4952C231.753 58.8194 225.845 52.1739 216.767 52.1739Z" fill="black"/>
</svg>
