<?xml version="1.0" encoding="utf-8"?>
<!-- Generator: Adobe Illustrator 27.8.0, SVG Export Plug-In . SVG Version: 6.00 Build 0)  -->
<svg version="1.1" id="Layer_1" xmlns="http://www.w3.org/2000/svg" xmlns:xlink="http://www.w3.org/1999/xlink" x="0px" y="0px"
	 viewBox="0 0 1500 700" style="enable-background:new 0 0 1500 700;" xml:space="preserve">
<style type="text/css">
	.st0{fill:#E1E1E1;}
	.st1{fill:#F58B00;}
</style>
<g>
	<g>
		<rect x="259.4" y="413.5" class="st0" width="101.6" height="101.6"/>
		<g>
			<rect x="373.8" y="413.5" class="st1" width="101.6" height="101.6"/>
		</g>
		<g>
			<rect x="373.8" y="299.2" class="st1" width="101.6" height="101.6"/>
		</g>
		<rect x="259.4" y="299.2" class="st0" width="101.6" height="101.6"/>
		<rect x="259.4" y="184.8" class="st0" width="101.6" height="101.6"/>
	</g>
	<g>
		<path class="st0" d="M616.4,188.7h110.8c48.9,0,68.4,19.9,68.4,65.4v24.7c0,35.9-17.3,50.2-31.6,55.4c16,5.6,37.7,19.1,37.7,60.2
			v42.9c0,46.3-24.2,73.6-72.7,73.6H616.4V188.7z M683.1,238.1v77.1H706c16.9,0,23.8-8.7,23.8-28.1v-22.1c0-19.5-6.1-26.8-24.2-26.8
			H683.1z M683.1,366.2v93.1h24.2c18.6,0,25.1-8.2,25.1-28.6v-35.5c0-20.3-6.9-29-25.5-29H683.1z"/>
		<path class="st0" d="M1020.7,424.3c0,57.2-28.6,90.9-88.3,90.9h-10.8c-61.9,0-88.8-34.2-88.8-90.9V274.9
			c0-56.7,26.8-90.1,88.3-90.1h10.8c61.9,0,88.8,33.3,88.8,90.1V424.3z M951.4,275.7c0-22.9-8.7-32.5-24.7-32.5
			c-16.5,0-24.7,9.5-24.7,32.5v148.5c0,21.2,7.8,32,24.7,32c16.5,0,24.7-10.8,24.7-32V275.7z"/>
		<path class="st0" d="M1055.3,188.7h110.8c48.9,0,68.4,19.9,68.4,65.4v24.7c0,35.9-17.3,50.2-31.6,55.4c16,5.6,37.7,19.1,37.7,60.2
			v42.9c0,46.3-24.2,73.6-72.7,73.6h-112.6V188.7z M1121.9,238.1v77.1h22.9c16.9,0,23.8-8.7,23.8-28.1v-22.1
			c0-19.5-6.1-26.8-24.2-26.8H1121.9z M1121.9,366.2v93.1h24.2c18.6,0,25.1-8.2,25.1-28.6v-35.5c0-20.3-6.9-29-25.5-29H1121.9z"/>
	</g>
</g>
</svg>
