<svg version="1.1" id="Layer_1" xmlns="http://www.w3.org/2000/svg" xmlns:xlink="http://www.w3.org/1999/xlink" x="0px" y="0px"
	 width="100%" viewBox="0 0 512 515" enable-background="new 0 0 512 515" xml:space="preserve">
<path fill="#000000" opacity="1.000000" stroke="none" 
	d="
M1.000001,236.000000 
	C1.000000,157.701462 1.000000,79.402908 1.000000,1.052183 
	C171.556076,1.052183 342.112183,1.052183 513.000000,1.052183 
	C513.000000,79.021118 513.000000,157.042709 512.655396,235.864288 
	C511.210022,231.156937 509.995178,225.669525 509.029083,220.138672 
	C505.485229,199.850647 499.394318,180.293777 490.796448,161.660172 
	C481.268341,141.010513 470.201599,121.082382 454.611664,104.291809 
	C442.200897,90.925270 429.873810,77.183960 415.774658,65.747925 
	C391.271271,45.872860 363.456787,31.391626 333.163879,22.052557 
	C314.665771,16.349739 295.738586,11.997493 276.454956,11.277025 
	C258.833740,10.618669 241.101883,11.968678 223.460419,13.089234 
	C207.890884,14.078187 192.660156,17.660624 178.109039,23.121511 
	C163.371933,28.652193 148.864532,34.954865 134.721939,41.871117 
	C115.020081,51.506050 97.565941,64.666862 81.861565,79.872498 
	C72.304878,89.125664 63.544289,99.276817 55.067612,109.553741 
	C37.820442,130.463776 25.286495,154.139175 16.039894,179.539536 
	C9.608871,197.205505 4.714826,215.286484 2.914326,234.097870 
	C2.848399,234.786682 1.663450,235.368378 1.000001,236.000000 
z"/>
<path fill="#B6BDF9" opacity="1.000000" stroke="none" 
	d="
M1.000001,236.468658 
	C1.663450,235.368378 2.848399,234.786682 2.914326,234.097870 
	C4.714826,215.286484 9.608871,197.205505 16.039894,179.539536 
	C25.286495,154.139175 37.820442,130.463776 55.067612,109.553741 
	C63.544289,99.276817 72.304878,89.125664 81.861565,79.872498 
	C97.565941,64.666862 115.020081,51.506050 134.721939,41.871117 
	C148.864532,34.954865 163.371933,28.652193 178.109039,23.121511 
	C192.660156,17.660624 207.890884,14.078187 223.460419,13.089234 
	C241.101883,11.968678 258.833740,10.618669 276.454956,11.277025 
	C295.738586,11.997493 314.665771,16.349739 333.163879,22.052557 
	C363.456787,31.391626 391.271271,45.872860 415.774658,65.747925 
	C429.873810,77.183960 442.200897,90.925270 454.611664,104.291809 
	C470.201599,121.082382 481.268341,141.010513 490.796448,161.660172 
	C499.394318,180.293777 505.485229,199.850647 509.029083,220.138672 
	C509.995178,225.669525 511.210022,231.156937 512.655396,236.332153 
	C513.000000,257.020905 513.000000,278.041779 512.659790,299.199524 
	C511.883087,300.171844 511.198364,300.965271 511.048706,301.849274 
	C509.613586,310.326935 508.910095,318.985168 506.773315,327.276306 
	C501.177338,348.990173 493.592987,369.975647 482.785217,389.767303 
	C473.415070,406.926361 462.785675,423.253662 449.626587,437.612640 
	C435.186188,453.369659 419.767395,468.187897 401.757568,480.106262 
	C379.397858,494.903229 355.866516,507.027802 329.898315,514.125854 
	C329.460785,514.245483 329.293396,515.353271 329.000000,516.000000 
	C281.312439,516.000000 233.624878,516.000000 185.795395,515.687622 
	C179.064468,512.925964 172.476791,510.473206 165.886230,508.028198 
	C137.029694,497.322784 110.985176,481.714508 88.101425,461.293701 
	C76.922783,451.318207 66.954544,439.882324 57.152740,428.492737 
	C43.038429,412.092102 32.186581,393.554291 23.289526,373.812592 
	C12.929429,350.824646 5.938088,326.946869 2.917115,301.902374 
	C2.832555,301.201355 1.663410,300.631195 1.000002,300.000000 
	C1.000000,278.979095 1.000000,257.958221 1.000001,236.468658 
M37.371964,164.933975 
	C17.066105,209.065353 10.266116,255.280151 17.365294,303.245422 
	C25.670906,359.361938 50.504272,407.304932 92.347359,445.672150 
	C149.896317,498.440460 218.023285,519.007019 295.058289,507.548553 
	C349.505127,499.449890 395.926147,474.479340 433.376556,434.025757 
	C484.115997,379.217407 505.518066,314.040283 497.564880,239.998276 
	C491.113586,179.938690 465.104126,128.768082 420.094025,88.365654 
	C358.125336,32.740692 285.337463,13.014255 204.192261,30.930716 
	C127.516479,47.860355 72.396935,93.821732 37.371964,164.933975 
z"/>
<path fill="#000000" opacity="1.000000" stroke="none" 
	d="
M329.468628,516.000000 
	C329.293396,515.353271 329.460785,514.245483 329.898315,514.125854 
	C355.866516,507.027802 379.397858,494.903229 401.757568,480.106262 
	C419.767395,468.187897 435.186188,453.369659 449.626587,437.612640 
	C462.785675,423.253662 473.415070,406.926361 482.785217,389.767303 
	C493.592987,369.975647 501.177338,348.990173 506.773315,327.276306 
	C508.910095,318.985168 509.613586,310.326935 511.048706,301.849274 
	C511.198364,300.965271 511.883087,300.171844 512.659790,299.668213 
	C513.000000,371.921173 513.000000,443.842377 513.000000,516.000000 
	C451.979309,516.000000 390.958313,516.000000 329.468628,516.000000 
z"/>
<path fill="#000000" opacity="1.000000" stroke="none" 
	d="
M1.000002,300.468658 
	C1.663410,300.631195 2.832555,301.201355 2.917115,301.902374 
	C5.938088,326.946869 12.929429,350.824646 23.289526,373.812592 
	C32.186581,393.554291 43.038429,412.092102 57.152740,428.492737 
	C66.954544,439.882324 76.922783,451.318207 88.101425,461.293701 
	C110.985176,481.714508 137.029694,497.322784 165.886230,508.028198 
	C172.476791,510.473206 179.064468,512.925964 185.326736,515.687622 
	C123.733803,516.000000 62.467609,516.000000 1.000000,516.000000 
	C1.000000,444.312561 1.000000,372.624939 1.000002,300.468658 
z"/>
<path fill="#010101" opacity="1.000000" stroke="none" 
	d="
M37.573940,164.617340 
	C72.396935,93.821732 127.516479,47.860355 204.192261,30.930716 
	C285.337463,13.014255 358.125336,32.740692 420.094025,88.365654 
	C465.104126,128.768082 491.113586,179.938690 497.564880,239.998276 
	C505.518066,314.040283 484.115997,379.217407 433.376556,434.025757 
	C395.926147,474.479340 349.505127,499.449890 295.058289,507.548553 
	C218.023285,519.007019 149.896317,498.440460 92.347359,445.672150 
	C50.504272,407.304932 25.670906,359.361938 17.365294,303.245422 
	C10.266116,255.280151 17.066105,209.065353 37.573940,164.617340 
M140.927338,167.366913 
	C140.928329,177.872116 142.006119,178.929169 152.716843,178.929321 
	C159.380981,178.929398 166.045120,178.929337 172.709259,178.929337 
	C177.126297,178.929337 181.543320,178.929321 186.070770,178.929321 
	C186.070770,193.485794 186.043533,207.307739 186.083298,221.129486 
	C186.100830,227.222778 188.449921,229.604843 194.528885,229.683945 
	C200.692184,229.764145 206.857330,229.708832 213.021652,229.700439 
	C221.092545,229.689453 223.065231,227.745972 223.071152,219.763916 
	C223.081131,206.311417 223.073898,192.858917 223.073898,178.929291 
	C235.438171,178.929291 247.383789,178.945862 259.329346,178.922791 
	C266.031555,178.909851 268.222656,176.712494 268.293915,169.921646 
	C268.346344,164.924088 268.304718,159.925537 268.304718,154.927429 
	C268.304810,139.070679 268.304749,139.070663 252.615875,139.070663 
	C242.857925,139.070663 233.099976,139.070679 223.073425,139.070679 
	C223.073425,124.960136 223.113220,111.489967 223.054245,98.020241 
	C223.029907,92.463799 220.668304,89.956802 215.313904,89.869446 
	C208.151932,89.752609 200.984985,89.747025 193.823257,89.870911 
	C188.448410,89.963882 186.124039,92.481873 186.085220,98.028107 
	C186.029236,106.024689 186.070724,114.021957 186.070679,122.018929 
	C186.070648,127.616646 186.070679,133.214355 186.070679,139.070709 
	C173.835297,139.070709 162.197479,139.057419 150.559692,139.075455 
	C142.954208,139.087250 140.936859,141.163620 140.928558,148.906143 
	C140.922302,154.737274 140.927338,160.568390 140.927338,167.366913 
M339.749207,210.500031 
	C339.749237,190.340622 339.751770,170.181213 339.748047,150.021805 
	C339.746674,142.515305 337.366760,138.928040 332.526855,139.104828 
	C327.946655,139.272125 325.920563,142.603073 325.920258,150.005310 
	C325.918152,200.820297 325.918854,251.635300 325.919220,302.450287 
	C325.919434,329.773743 325.903015,357.097260 325.937347,384.420654 
	C325.943756,389.514496 328.506775,392.646118 332.535492,392.813202 
	C336.769714,392.988770 339.561340,389.754974 339.741089,384.437439 
	C339.780487,383.272461 339.749207,382.105133 339.749207,380.938873 
	C339.749176,324.459259 339.749084,267.979645 339.749207,210.500031 
M362.943726,242.500000 
	C362.943695,219.847824 362.946655,197.195663 362.937012,174.543488 
	C362.936371,173.048264 363.421661,171.081833 362.669830,170.153000 
	C360.942810,168.019363 358.845856,165.428436 356.431946,164.790390 
	C353.070770,163.901947 350.448517,166.344345 349.443817,169.762741 
	C349.033752,171.157852 349.148865,172.728806 349.148560,174.219788 
	C349.136261,235.347336 349.136169,296.474884 349.149231,357.602448 
	C349.149536,359.093658 349.084167,360.644318 349.449646,362.064240 
	C350.353821,365.577026 352.946716,367.945282 356.355377,367.037201 
	C358.777679,366.391876 360.969452,363.942078 362.638885,361.808441 
	C363.467072,360.749969 362.936066,358.589417 362.936462,356.927429 
	C362.945862,319.118286 362.943695,281.309143 362.943726,242.500000 
M209.744125,388.290253 
	C213.103653,393.395630 217.916885,394.519623 221.022095,390.443207 
	C222.458389,388.557648 222.988052,385.563049 222.994446,383.068878 
	C223.107529,338.946381 223.077377,294.823486 223.071854,250.700684 
	C223.071686,249.370132 223.526642,247.623932 222.864487,246.790131 
	C221.154800,244.637222 219.077850,241.579330 216.883652,241.344025 
	C214.684891,241.108231 211.745895,243.465546 209.946655,245.432205 
	C208.870148,246.608841 209.172379,249.216980 209.170776,251.181915 
	C209.135086,294.971710 209.140198,338.761505 209.156006,382.551300 
	C209.156601,384.206909 209.341751,385.862457 209.744125,388.290253 
M186.064423,249.852600 
	C186.064529,294.631042 186.056015,339.409515 186.076233,384.187958 
	C186.078629,389.475037 188.820770,392.809662 192.965942,392.810120 
	C197.151123,392.810577 199.980743,389.497131 199.984238,384.239838 
	C200.014023,339.294922 200.012375,294.350006 199.985123,249.405090 
	C199.981979,244.228699 197.564819,241.229523 193.469360,240.953552 
	C189.109726,240.659760 186.619003,243.349457 186.064423,249.852600 
M316.159760,267.500000 
	C316.159515,258.187347 316.182404,248.874603 316.150330,239.562042 
	C316.131042,233.962494 313.721497,230.975723 309.381561,231.024307 
	C305.182068,231.071335 302.760651,233.920471 302.745239,239.229858 
	C302.693054,257.189850 302.690979,275.150177 302.749329,293.110138 
	C302.765045,297.942596 305.277802,300.774689 309.280853,300.900970 
	C313.392456,301.030670 316.106903,297.969971 316.142670,292.945618 
	C316.200684,284.797455 316.159302,276.648590 316.159760,267.500000 
M316.159760,182.484192 
	C316.157410,170.498505 316.159241,158.512802 316.150452,146.527115 
	C316.147278,142.170135 313.932648,139.398560 309.646606,139.214737 
	C305.593903,139.040939 302.879303,141.548584 302.835480,145.627853 
	C302.665558,161.439972 302.679352,177.255630 302.813751,193.068359 
	C302.846954,196.971207 305.398926,199.214645 309.251770,199.288223 
	C313.340149,199.366318 315.847626,197.139328 316.104401,192.962555 
	C316.298157,189.811234 316.153748,186.639130 316.159760,182.484192 
M316.159760,379.431946 
	C316.158691,366.275024 316.140411,353.118073 316.166229,339.961212 
	C316.174805,335.588989 314.165955,332.980591 309.744598,332.674316 
	C305.512970,332.381165 302.954041,335.073944 302.755798,339.890198 
	C302.639435,342.716766 302.722412,345.551788 302.723450,348.382996 
	C302.728027,360.873688 302.655762,373.365204 302.786194,385.854614 
	C302.830353,390.084137 305.956238,393.152283 309.665161,392.755493 
	C313.608429,392.333527 316.060547,390.133606 316.142670,385.898773 
	C316.178192,384.067413 316.155884,382.234955 316.159760,379.431946 
M176.612671,353.706085 
	C176.608368,352.377411 176.672501,351.044342 176.587463,349.720856 
	C176.280685,344.945709 173.726700,342.100739 169.766296,342.047760 
	C165.609833,341.992188 162.876740,344.989624 162.847397,349.981049 
	C162.779099,361.606812 162.775650,373.233551 162.852325,384.859222 
	C162.885757,389.928802 165.606140,392.910492 169.768600,392.815002 
	C173.875412,392.720764 176.521271,389.500610 176.578766,384.052246 
	C176.682175,374.254120 176.610596,364.454193 176.612671,353.706085 
M153.085846,378.450073 
	C153.085449,368.987061 153.120071,359.523834 153.069946,350.061096 
	C153.044617,345.280182 150.598465,342.286407 146.735184,342.062256 
	C142.589127,341.821747 139.589752,344.808350 139.436096,349.702179 
	C139.274658,354.843781 139.387253,359.994110 139.388641,365.140625 
	C139.390503,371.947296 139.304413,378.755920 139.442429,385.559937 
	C139.528732,389.815521 141.886566,392.413971 146.152267,392.788757 
	C149.961884,393.123413 152.800354,390.185791 153.054352,385.902100 
	C153.181870,383.751221 153.082596,381.586945 153.085846,378.450073 
M293.008636,362.503296 
	C293.008148,358.351379 293.065979,354.198456 292.992279,350.047852 
	C292.902954,345.018036 290.258728,342.019135 286.093994,342.059479 
	C282.236115,342.096832 279.267883,345.080261 279.210846,349.668610 
	C279.064331,361.458069 279.066406,373.251587 279.201477,385.041260 
	C279.257019,389.887573 282.380249,392.979431 286.447266,392.824860 
	C290.260590,392.679962 292.933228,389.572174 292.985870,384.925629 
	C293.066742,377.785278 293.008087,370.643341 293.008636,362.503296 
M386.176239,300.735107 
	C386.014618,294.345551 383.722809,291.236145 379.216705,291.292725 
	C374.877563,291.347198 372.424652,294.781036 372.401154,301.053802 
	C372.360718,311.843048 372.336121,322.632935 372.414612,333.421783 
	C372.454651,338.925995 375.009033,341.965302 379.294647,341.999146 
	C383.691956,342.033875 386.135193,339.115875 386.160889,333.553314 
	C386.209991,322.930115 386.176086,312.306580 386.176239,300.735107 
M386.176544,215.499908 
	C386.174255,209.501755 386.254578,203.502090 386.143768,197.505936 
	C386.054382,192.670105 383.510132,189.877014 379.368591,189.967300 
	C374.849915,190.065796 372.599548,192.904053 372.532440,197.021072 
	C372.334167,209.179504 372.369598,221.344086 372.500305,233.504272 
	C372.546448,237.796417 375.119934,240.322388 379.377380,240.624527 
	C383.231018,240.898026 386.048553,237.654144 386.143280,232.994110 
	C386.255005,227.498016 386.174072,221.998032 386.176544,215.499908 
M223.082443,435.485718 
	C223.076401,426.820801 223.123993,418.155334 223.040848,409.491150 
	C223.001480,405.389343 220.711731,402.762360 216.715332,402.450348 
	C212.675400,402.134888 209.611145,404.526367 209.514801,408.502960 
	C209.204239,421.320587 209.182251,434.156219 209.528061,446.972015 
	C209.631836,450.818054 212.497437,453.364136 216.723206,452.978546 
	C220.806015,452.606018 222.929291,450.050049 223.054108,445.975525 
	C223.150986,442.812347 223.079239,439.644012 223.082443,435.485718 
M279.141418,432.494324 
	C279.142914,436.493561 279.066376,440.494690 279.164825,444.491547 
	C279.300812,450.012085 281.848999,453.043640 286.168518,453.039917 
	C290.531464,453.036163 292.976044,450.037842 292.995972,444.454163 
	C293.035797,433.289734 293.035248,422.125031 292.995728,410.960602 
	C292.976990,405.669250 290.244049,402.314789 286.112549,402.313202 
	C281.908142,402.311584 279.233002,405.542816 279.163757,411.000641 
	C279.077057,417.831573 279.142029,424.664429 279.141418,432.494324 
M269.854828,378.424377 
	C269.846466,368.797119 269.956757,359.167633 269.777802,349.543549 
	C269.693146,344.991302 266.608765,341.855072 262.749573,342.102081 
	C258.748047,342.358185 256.116882,344.593475 256.069672,348.712128 
	C255.926926,361.159485 255.915207,373.610626 256.063965,386.057739 
	C256.112671,390.133484 258.749298,392.563416 262.714294,392.738617 
	C266.532990,392.907379 268.962982,390.535858 269.598206,386.838104 
	C270.014771,384.413239 269.791473,381.878448 269.854828,378.424377 
M186.053497,429.499451 
	C186.054825,434.810577 185.969910,440.123535 186.083313,445.432281 
	C186.183929,450.142761 188.820602,452.992340 192.846039,453.055908 
	C196.795013,453.118286 199.760971,450.190826 199.808121,445.592712 
	C199.930634,433.644012 199.935318,421.692139 199.795685,409.743774 
	C199.742111,405.160431 196.689148,402.206726 192.764191,402.313507 
	C188.892563,402.418854 186.158875,405.462585 186.081467,410.077240 
	C185.978485,416.216522 186.054443,422.358826 186.053497,429.499451 
M279.140900,101.502045 
	C279.143463,108.164200 279.041199,114.828590 279.183075,121.487778 
	C279.289062,126.462646 282.134857,129.559448 286.199585,129.567337 
	C290.248169,129.575195 292.963287,126.432373 292.989014,121.408363 
	C293.047882,109.916428 293.054199,98.423721 292.986145,86.931885 
	C292.955505,81.759804 290.377808,78.892448 286.117065,78.943497 
	C281.909088,78.993912 279.309692,81.902122 279.170105,87.013313 
	C279.047363,91.506950 279.142242,96.006538 279.140900,101.502045 
M293.006805,182.073257 
	C293.007263,170.606750 293.034027,159.140152 292.996521,147.673767 
	C292.979034,142.339050 290.273956,139.071945 286.084412,139.132401 
	C282.054108,139.190552 279.221558,142.341171 279.178650,147.302902 
	C279.079559,158.768539 279.126068,170.235657 279.158020,181.702057 
	C279.170074,186.028412 280.941132,189.390671 285.543457,189.772064 
	C290.064789,190.146729 292.627655,187.550674 293.006805,182.073257 
M292.286194,244.651276 
	C290.698669,241.249023 287.650330,239.783371 284.536682,241.142563 
	C282.350494,242.096863 279.574982,244.906082 279.502045,246.973038 
	C279.051849,259.731995 279.091675,272.520691 279.426453,285.287506 
	C279.530457,289.254578 282.554962,291.437195 286.682129,291.165100 
	C290.599701,290.906891 292.897308,288.475037 292.917908,284.704773 
	C292.989502,271.603760 292.788116,258.501251 292.286194,244.651276 
M255.992889,265.500153 
	C255.994614,271.659302 255.931366,277.819366 256.020416,283.977234 
	C256.081940,288.233856 258.118317,291.020660 262.599213,291.152802 
	C267.055817,291.284180 269.630432,288.572754 269.711975,284.424622 
	C269.954010,272.112061 269.960541,259.788208 269.703491,247.476196 
	C269.617188,243.343323 267.035339,240.611084 262.558380,240.803391 
	C258.113983,240.994293 256.052246,243.719360 256.010468,248.020767 
	C255.957108,253.513550 255.994568,259.007233 255.992889,265.500153 
M232.794205,348.986847 
	C232.782745,361.138367 232.672043,373.291016 232.810013,385.440826 
	C232.863144,390.119965 235.935059,393.190430 239.851608,392.744446 
	C244.119934,392.258423 246.280670,389.650787 246.275757,385.292267 
	C246.262390,373.472778 246.224167,361.652954 246.300217,349.833954 
	C246.326385,345.767151 244.708969,342.894867 240.648117,342.255249 
	C236.337387,341.576263 233.728012,343.841217 232.794205,348.986847 
M316.159760,419.515076 
	C316.159271,416.520844 316.194733,413.526093 316.150299,410.532501 
	C316.075043,405.465515 313.514862,402.359344 309.459198,402.335754 
	C305.402130,402.312164 302.778076,405.369385 302.748444,410.493347 
	C302.682129,421.970825 302.679199,433.449219 302.746674,444.926697 
	C302.777771,450.209900 305.225220,453.038879 309.451416,453.042725 
	C313.686737,453.046570 316.107544,450.206818 316.143616,444.962311 
	C316.199585,436.811737 316.159332,428.660492 316.159760,419.515076 
M246.220276,284.992035 
	C246.237427,272.855743 246.299454,260.719238 246.250137,248.583221 
	C246.229797,243.575958 243.940521,240.940353 239.814499,240.776947 
	C235.499039,240.606033 232.828659,243.344086 232.780899,248.507690 
	C232.673294,260.144379 232.736557,271.782745 232.751801,283.420410 
	C232.756897,287.301208 234.120300,290.361267 238.327148,291.071716 
	C242.415909,291.762207 245.002533,289.825745 246.220276,284.992035 
M311.100128,79.079987 
	C304.906921,79.082634 302.797638,80.925659 302.752899,86.850548 
	C302.665009,98.498863 302.670380,110.148735 302.754730,121.797112 
	C302.790283,126.708107 305.292786,129.418381 309.400604,129.440140 
	C313.518524,129.461960 316.105835,126.708382 316.133606,121.915398 
	C316.202057,110.100395 316.390900,98.276108 315.960144,86.476402 
	C315.871307,84.042984 313.300018,81.700195 311.100128,79.079987 
z"/>
<path fill="#B7BEFA" opacity="1.000000" stroke="none" 
	d="
M140.927338,166.883209 
	C140.927338,160.568390 140.922302,154.737274 140.928558,148.906143 
	C140.936859,141.163620 142.954208,139.087250 150.559692,139.075455 
	C162.197479,139.057419 173.835297,139.070709 186.070679,139.070709 
	C186.070679,133.214355 186.070648,127.616646 186.070679,122.018929 
	C186.070724,114.021957 186.029236,106.024689 186.085220,98.028107 
	C186.124039,92.481873 188.448410,89.963882 193.823257,89.870911 
	C200.984985,89.747025 208.151932,89.752609 215.313904,89.869446 
	C220.668304,89.956802 223.029907,92.463799 223.054245,98.020241 
	C223.113220,111.489967 223.073425,124.960136 223.073425,139.070679 
	C233.099976,139.070679 242.857925,139.070663 252.615875,139.070663 
	C268.304749,139.070663 268.304810,139.070679 268.304718,154.927429 
	C268.304718,159.925537 268.346344,164.924088 268.293915,169.921646 
	C268.222656,176.712494 266.031555,178.909851 259.329346,178.922791 
	C247.383789,178.945862 235.438171,178.929291 223.073898,178.929291 
	C223.073898,192.858917 223.081131,206.311417 223.071152,219.763916 
	C223.065231,227.745972 221.092545,229.689453 213.021652,229.700439 
	C206.857330,229.708832 200.692184,229.764145 194.528885,229.683945 
	C188.449921,229.604843 186.100830,227.222778 186.083298,221.129486 
	C186.043533,207.307739 186.070770,193.485794 186.070770,178.929321 
	C181.543320,178.929321 177.126297,178.929337 172.709259,178.929337 
	C166.045120,178.929337 159.380981,178.929398 152.716843,178.929321 
	C142.006119,178.929169 140.928329,177.872116 140.927338,166.883209 
z"/>
<path fill="#6B7093" opacity="1.000000" stroke="none" 
	d="
M339.749084,211.000031 
	C339.749084,267.979645 339.749176,324.459259 339.749207,380.938873 
	C339.749207,382.105133 339.780487,383.272461 339.741089,384.437439 
	C339.561340,389.754974 336.769714,392.988770 332.535492,392.813202 
	C328.506775,392.646118 325.943756,389.514496 325.937347,384.420654 
	C325.903015,357.097260 325.919434,329.773743 325.919220,302.450287 
	C325.918854,251.635300 325.918152,200.820297 325.920258,150.005310 
	C325.920563,142.603073 327.946655,139.272125 332.526855,139.104828 
	C337.366760,138.928040 339.746674,142.515305 339.748047,150.021805 
	C339.751770,170.181213 339.749237,190.340622 339.749084,211.000031 
z"/>
<path fill="#6B7093" opacity="1.000000" stroke="none" 
	d="
M362.943726,243.000000 
	C362.943695,281.309143 362.945862,319.118286 362.936462,356.927429 
	C362.936066,358.589417 363.467072,360.749969 362.638885,361.808441 
	C360.969452,363.942078 358.777679,366.391876 356.355377,367.037201 
	C352.946716,367.945282 350.353821,365.577026 349.449646,362.064240 
	C349.084167,360.644318 349.149536,359.093658 349.149231,357.602448 
	C349.136169,296.474884 349.136261,235.347336 349.148560,174.219788 
	C349.148865,172.728806 349.033752,171.157852 349.443817,169.762741 
	C350.448517,166.344345 353.070770,163.901947 356.431946,164.790390 
	C358.845856,165.428436 360.942810,168.019363 362.669830,170.153000 
	C363.421661,171.081833 362.936371,173.048264 362.937012,174.543488 
	C362.946655,197.195663 362.943695,219.847824 362.943726,243.000000 
z"/>
<path fill="#6C7194" opacity="1.000000" stroke="none" 
	d="
M209.592514,387.904144 
	C209.341751,385.862457 209.156601,384.206909 209.156006,382.551300 
	C209.140198,338.761505 209.135086,294.971710 209.170776,251.181915 
	C209.172379,249.216980 208.870148,246.608841 209.946655,245.432205 
	C211.745895,243.465546 214.684891,241.108231 216.883652,241.344025 
	C219.077850,241.579330 221.154800,244.637222 222.864487,246.790131 
	C223.526642,247.623932 223.071686,249.370132 223.071854,250.700684 
	C223.077377,294.823486 223.107529,338.946381 222.994446,383.068878 
	C222.988052,385.563049 222.458389,388.557648 221.022095,390.443207 
	C217.916885,394.519623 213.103653,393.395630 209.592514,387.904144 
z"/>
<path fill="#6D7295" opacity="1.000000" stroke="none" 
	d="
M186.064941,249.400787 
	C186.619003,243.349457 189.109726,240.659760 193.469360,240.953552 
	C197.564819,241.229523 199.981979,244.228699 199.985123,249.405090 
	C200.012375,294.350006 200.014023,339.294922 199.984238,384.239838 
	C199.980743,389.497131 197.151123,392.810577 192.965942,392.810120 
	C188.820770,392.809662 186.078629,389.475037 186.076233,384.187958 
	C186.056015,339.409515 186.064529,294.631042 186.064941,249.400787 
z"/>
<path fill="#6D7296" opacity="1.000000" stroke="none" 
	d="
M316.159821,268.000000 
	C316.159302,276.648590 316.200684,284.797455 316.142670,292.945618 
	C316.106903,297.969971 313.392456,301.030670 309.280853,300.900970 
	C305.277802,300.774689 302.765045,297.942596 302.749329,293.110138 
	C302.690979,275.150177 302.693054,257.189850 302.745239,239.229858 
	C302.760651,233.920471 305.182068,231.071335 309.381561,231.024307 
	C313.721497,230.975723 316.131042,233.962494 316.150330,239.562042 
	C316.182404,248.874603 316.159515,258.187347 316.159821,268.000000 
z"/>
<path fill="#6D7296" opacity="1.000000" stroke="none" 
	d="
M316.159821,182.980240 
	C316.153748,186.639130 316.298157,189.811234 316.104401,192.962555 
	C315.847626,197.139328 313.340149,199.366318 309.251770,199.288223 
	C305.398926,199.214645 302.846954,196.971207 302.813751,193.068359 
	C302.679352,177.255630 302.665558,161.439972 302.835480,145.627853 
	C302.879303,141.548584 305.593903,139.040939 309.646606,139.214737 
	C313.932648,139.398560 316.147278,142.170135 316.150452,146.527115 
	C316.159241,158.512802 316.157410,170.498505 316.159821,182.980240 
z"/>
<path fill="#6D7296" opacity="1.000000" stroke="none" 
	d="
M316.159821,379.917480 
	C316.155884,382.234955 316.178192,384.067413 316.142670,385.898773 
	C316.060547,390.133606 313.608429,392.333527 309.665161,392.755493 
	C305.956238,393.152283 302.830353,390.084137 302.786194,385.854614 
	C302.655762,373.365204 302.728027,360.873688 302.723450,348.382996 
	C302.722412,345.551788 302.639435,342.716766 302.755798,339.890198 
	C302.954041,335.073944 305.512970,332.381165 309.744598,332.674316 
	C314.165955,332.980591 316.174805,335.588989 316.166229,339.961212 
	C316.140411,353.118073 316.158691,366.275024 316.159821,379.917480 
z"/>
<path fill="#6A6F91" opacity="1.000000" stroke="none" 
	d="
M176.612396,354.180542 
	C176.610596,364.454193 176.682175,374.254120 176.578766,384.052246 
	C176.521271,389.500610 173.875412,392.720764 169.768600,392.815002 
	C165.606140,392.910492 162.885757,389.928802 162.852325,384.859222 
	C162.775650,373.233551 162.779099,361.606812 162.847397,349.981049 
	C162.876740,344.989624 165.609833,341.992188 169.766296,342.047760 
	C173.726700,342.100739 176.280685,344.945709 176.587463,349.720856 
	C176.672501,351.044342 176.608368,352.377411 176.612396,354.180542 
z"/>
<path fill="#6A6F92" opacity="1.000000" stroke="none" 
	d="
M153.085876,378.939392 
	C153.082596,381.586945 153.181870,383.751221 153.054352,385.902100 
	C152.800354,390.185791 149.961884,393.123413 146.152267,392.788757 
	C141.886566,392.413971 139.528732,389.815521 139.442429,385.559937 
	C139.304413,378.755920 139.390503,371.947296 139.388641,365.140625 
	C139.387253,359.994110 139.274658,354.843781 139.436096,349.702179 
	C139.589752,344.808350 142.589127,341.821747 146.735184,342.062256 
	C150.598465,342.286407 153.044617,345.280182 153.069946,350.061096 
	C153.120071,359.523834 153.085449,368.987061 153.085876,378.939392 
z"/>
<path fill="#6C7094" opacity="1.000000" stroke="none" 
	d="
M293.008636,363.002686 
	C293.008087,370.643341 293.066742,377.785278 292.985870,384.925629 
	C292.933228,389.572174 290.260590,392.679962 286.447266,392.824860 
	C282.380249,392.979431 279.257019,389.887573 279.201477,385.041260 
	C279.066406,373.251587 279.064331,361.458069 279.210846,349.668610 
	C279.267883,345.080261 282.236115,342.096832 286.093994,342.059479 
	C290.258728,342.019135 292.902954,345.018036 292.992279,350.047852 
	C293.065979,354.198456 293.008148,358.351379 293.008636,363.002686 
z"/>
<path fill="#6A6F92" opacity="1.000000" stroke="none" 
	d="
M386.176453,301.209137 
	C386.176086,312.306580 386.209991,322.930115 386.160889,333.553314 
	C386.135193,339.115875 383.691956,342.033875 379.294647,341.999146 
	C375.009033,341.965302 372.454651,338.925995 372.414612,333.421783 
	C372.336121,322.632935 372.360718,311.843048 372.401154,301.053802 
	C372.424652,294.781036 374.877563,291.347198 379.216705,291.292725 
	C383.722809,291.236145 386.014618,294.345551 386.176453,301.209137 
z"/>
<path fill="#6A6F92" opacity="1.000000" stroke="none" 
	d="
M386.176605,215.999817 
	C386.174072,221.998032 386.255005,227.498016 386.143280,232.994110 
	C386.048553,237.654144 383.231018,240.898026 379.377380,240.624527 
	C375.119934,240.322388 372.546448,237.796417 372.500305,233.504272 
	C372.369598,221.344086 372.334167,209.179504 372.532440,197.021072 
	C372.599548,192.904053 374.849915,190.065796 379.368591,189.967300 
	C383.510132,189.877014 386.054382,192.670105 386.143768,197.505936 
	C386.254578,203.502090 386.174255,209.501755 386.176605,215.999817 
z"/>
<path fill="#6B7092" opacity="1.000000" stroke="none" 
	d="
M223.082458,435.981842 
	C223.079239,439.644012 223.150986,442.812347 223.054108,445.975525 
	C222.929291,450.050049 220.806015,452.606018 216.723206,452.978546 
	C212.497437,453.364136 209.631836,450.818054 209.528061,446.972015 
	C209.182251,434.156219 209.204239,421.320587 209.514801,408.502960 
	C209.611145,404.526367 212.675400,402.134888 216.715332,402.450348 
	C220.711731,402.762360 223.001480,405.389343 223.040848,409.491150 
	C223.123993,418.155334 223.076401,426.820801 223.082458,435.981842 
z"/>
<path fill="#6C7094" opacity="1.000000" stroke="none" 
	d="
M279.141479,431.995392 
	C279.142029,424.664429 279.077057,417.831573 279.163757,411.000641 
	C279.233002,405.542816 281.908142,402.311584 286.112549,402.313202 
	C290.244049,402.314789 292.976990,405.669250 292.995728,410.960602 
	C293.035248,422.125031 293.035797,433.289734 292.995972,444.454163 
	C292.976044,450.037842 290.531464,453.036163 286.168518,453.039917 
	C281.848999,453.043640 279.300812,450.012085 279.164825,444.491547 
	C279.066376,440.494690 279.142914,436.493561 279.141479,431.995392 
z"/>
<path fill="#6B7094" opacity="1.000000" stroke="none" 
	d="
M269.854797,378.908630 
	C269.791473,381.878448 270.014771,384.413239 269.598206,386.838104 
	C268.962982,390.535858 266.532990,392.907379 262.714294,392.738617 
	C258.749298,392.563416 256.112671,390.133484 256.063965,386.057739 
	C255.915207,373.610626 255.926926,361.159485 256.069672,348.712128 
	C256.116882,344.593475 258.748047,342.358185 262.749573,342.102081 
	C266.608765,341.855072 269.693146,344.991302 269.777802,349.543549 
	C269.956757,359.167633 269.846466,368.797119 269.854797,378.908630 
z"/>
<path fill="#6B7092" opacity="1.000000" stroke="none" 
	d="
M186.053528,428.999634 
	C186.054443,422.358826 185.978485,416.216522 186.081467,410.077240 
	C186.158875,405.462585 188.892563,402.418854 192.764191,402.313507 
	C196.689148,402.206726 199.742111,405.160431 199.795685,409.743774 
	C199.935318,421.692139 199.930634,433.644012 199.808121,445.592712 
	C199.760971,450.190826 196.795013,453.118286 192.846039,453.055908 
	C188.820602,452.992340 186.183929,450.142761 186.083313,445.432281 
	C185.969910,440.123535 186.054825,434.810577 186.053528,428.999634 
z"/>
<path fill="#6B7094" opacity="1.000000" stroke="none" 
	d="
M279.140961,101.002769 
	C279.142242,96.006538 279.047363,91.506950 279.170105,87.013313 
	C279.309692,81.902122 281.909088,78.993912 286.117065,78.943497 
	C290.377808,78.892448 292.955505,81.759804 292.986145,86.931885 
	C293.054199,98.423721 293.047882,109.916428 292.989014,121.408363 
	C292.963287,126.432373 290.248169,129.575195 286.199585,129.567337 
	C282.134857,129.559448 279.289062,126.462646 279.183075,121.487778 
	C279.041199,114.828590 279.143463,108.164200 279.140961,101.002769 
z"/>
<path fill="#6C7094" opacity="1.000000" stroke="none" 
	d="
M293.002441,182.517090 
	C292.627655,187.550674 290.064789,190.146729 285.543457,189.772064 
	C280.941132,189.390671 279.170074,186.028412 279.158020,181.702057 
	C279.126068,170.235657 279.079559,158.768539 279.178650,147.302902 
	C279.221558,142.341171 282.054108,139.190552 286.084412,139.132401 
	C290.273956,139.071945 292.979034,142.339050 292.996521,147.673767 
	C293.034027,159.140152 293.007263,170.606750 293.002441,182.517090 
z"/>
<path fill="#6C7094" opacity="1.000000" stroke="none" 
	d="
M292.488373,245.025284 
	C292.788116,258.501251 292.989502,271.603760 292.917908,284.704773 
	C292.897308,288.475037 290.599701,290.906891 286.682129,291.165100 
	C282.554962,291.437195 279.530457,289.254578 279.426453,285.287506 
	C279.091675,272.520691 279.051849,259.731995 279.502045,246.973038 
	C279.574982,244.906082 282.350494,242.096863 284.536682,241.142563 
	C287.650330,239.783371 290.698669,241.249023 292.488373,245.025284 
z"/>
<path fill="#6C7194" opacity="1.000000" stroke="none" 
	d="
M255.992889,265.000336 
	C255.994568,259.007233 255.957108,253.513550 256.010468,248.020767 
	C256.052246,243.719360 258.113983,240.994293 262.558380,240.803391 
	C267.035339,240.611084 269.617188,243.343323 269.703491,247.476196 
	C269.960541,259.788208 269.954010,272.112061 269.711975,284.424622 
	C269.630432,288.572754 267.055817,291.284180 262.599213,291.152802 
	C258.118317,291.020660 256.081940,288.233856 256.020416,283.977234 
	C255.931366,277.819366 255.994614,271.659302 255.992889,265.000336 
z"/>
<path fill="#6D7295" opacity="1.000000" stroke="none" 
	d="
M232.831879,348.544373 
	C233.728012,343.841217 236.337387,341.576263 240.648117,342.255249 
	C244.708969,342.894867 246.326385,345.767151 246.300217,349.833954 
	C246.224167,361.652954 246.262390,373.472778 246.275757,385.292267 
	C246.280670,389.650787 244.119934,392.258423 239.851608,392.744446 
	C235.935059,393.190430 232.863144,390.119965 232.810013,385.440826 
	C232.672043,373.291016 232.782745,361.138367 232.831879,348.544373 
z"/>
<path fill="#6D7296" opacity="1.000000" stroke="none" 
	d="
M316.159821,420.012329 
	C316.159332,428.660492 316.199585,436.811737 316.143616,444.962311 
	C316.107544,450.206818 313.686737,453.046570 309.451416,453.042725 
	C305.225220,453.038879 302.777771,450.209900 302.746674,444.926697 
	C302.679199,433.449219 302.682129,421.970825 302.748444,410.493347 
	C302.778076,405.369385 305.402130,402.312164 309.459198,402.335754 
	C313.514862,402.359344 316.075043,405.465515 316.150299,410.532501 
	C316.194733,413.526093 316.159271,416.520844 316.159821,420.012329 
z"/>
<path fill="#6D7296" opacity="1.000000" stroke="none" 
	d="
M246.170242,285.432373 
	C245.002533,289.825745 242.415909,291.762207 238.327148,291.071716 
	C234.120300,290.361267 232.756897,287.301208 232.751801,283.420410 
	C232.736557,271.782745 232.673294,260.144379 232.780899,248.507690 
	C232.828659,243.344086 235.499039,240.606033 239.814499,240.776947 
	C243.940521,240.940353 246.229797,243.575958 246.250137,248.583221 
	C246.299454,260.719238 246.237427,272.855743 246.170242,285.432373 
z"/>
<path fill="#6D7296" opacity="1.000000" stroke="none" 
	d="
M311.486511,79.197807 
	C313.300018,81.700195 315.871307,84.042984 315.960144,86.476402 
	C316.390900,98.276108 316.202057,110.100395 316.133606,121.915398 
	C316.105835,126.708382 313.518524,129.461960 309.400604,129.440140 
	C305.292786,129.418381 302.790283,126.708107 302.754730,121.797112 
	C302.670380,110.148735 302.665009,98.498863 302.752899,86.850548 
	C302.797638,80.925659 304.906921,79.082634 311.486511,79.197807 
z"/>
</svg>