<svg version="1.1" id="Layer_1" xmlns="http://www.w3.org/2000/svg" xmlns:xlink="http://www.w3.org/1999/xlink" x="0px" y="0px"
	 width="100%" viewBox="0 0 250 250" enable-background="new 0 0 250 250" xml:space="preserve">
<path fill="#181E2A" opacity="1.000000" stroke="none" 
	d="
M177.000000,0.999997 
	C188.687561,1.000000 200.375122,1.000000 212.622742,1.350045 
	C214.319275,2.258582 215.413666,2.935267 216.598740,3.357223 
	C228.022369,7.424723 237.151367,14.407926 243.750061,24.620632 
	C246.190842,28.398167 248.584732,32.205994 251.000000,36.000004 
	C251.000000,49.687561 251.000000,63.375122 250.654785,77.602554 
	C249.179611,80.459366 248.049637,82.776321 246.549957,85.026535 
	C244.957687,85.608345 243.218079,85.940109 242.595581,86.956238 
	C238.168350,94.182968 232.068604,99.743248 225.132568,104.905571 
	C219.915054,107.111671 215.027802,109.259422 209.848633,111.349373 
	C209.042725,111.557259 208.528748,111.822952 207.652313,112.102142 
	C206.583389,112.267822 205.876938,112.419998 204.845123,112.478653 
	C203.693085,112.661354 202.866379,112.937584 201.570877,113.218185 
	C196.394547,113.194687 191.687012,113.166824 186.769440,112.917313 
	C185.977554,112.681999 185.395676,112.668343 184.439301,112.534164 
	C182.512375,112.327278 180.959915,112.240929 179.150543,111.850128 
	C171.963028,107.843666 165.032455,104.141655 157.994171,100.141785 
	C154.981537,96.855598 152.076599,93.867271 149.024658,90.565750 
	C145.834900,83.442528 142.792145,76.632484 139.822266,69.476913 
	C139.498734,67.784325 139.102310,66.437256 138.753418,64.620117 
	C138.756393,59.403954 138.711838,54.657871 138.893707,49.643753 
	C139.258789,48.225918 139.397461,47.076111 139.646072,45.610748 
	C139.773148,44.852516 139.790268,44.409832 140.015503,43.684116 
	C140.720856,41.580833 141.218094,39.760582 141.894165,37.619274 
	C144.281433,32.947563 146.489883,28.596907 148.974808,24.098703 
	C154.387527,19.197485 159.560593,14.482523 164.630966,9.659589 
	C165.730896,8.613340 166.462219,7.179602 167.693634,5.842913 
	C171.015945,4.174324 174.007965,2.587159 177.000000,0.999997 
M158.928635,44.885906 
	C160.994949,44.596882 163.061279,44.307858 165.849121,44.221363 
	C170.565567,44.802868 175.282028,45.384373 180.707855,46.187599 
	C193.570724,50.674255 204.974625,57.534634 214.928497,67.760139 
	C218.812057,73.687759 222.695633,79.615379 226.579193,85.542992 
	C227.093369,85.268547 227.607559,84.994102 228.121735,84.719658 
	C227.973328,79.623825 227.943924,74.504852 224.562698,69.370255 
	C212.823761,52.132515 197.152908,41.203377 175.348602,38.922832 
	C174.911240,38.931385 174.473892,38.939938 173.576279,38.475552 
	C172.371140,38.196587 171.165985,37.917622 169.248703,37.414581 
	C168.514923,37.490925 167.781128,37.567272 166.313187,37.434128 
	C163.152603,38.490879 159.992004,39.547630 156.148880,40.840836 
	C154.974243,42.233261 153.799622,43.625687 152.624985,45.018112 
	C152.954041,45.379517 153.283096,45.740921 153.612152,46.102322 
	C155.085815,45.673759 156.559464,45.245193 158.928635,44.885906 
M161.209183,53.008575 
	C158.404266,53.947395 155.440140,54.591713 152.876724,55.977318 
	C151.919144,56.494915 151.521973,58.772099 151.637360,60.184208 
	C151.681442,60.723515 153.877472,61.467937 155.089035,61.460941 
	C159.058563,61.438011 163.026367,61.112743 167.691360,61.144497 
	C169.140747,61.337540 170.590118,61.530582 172.769943,62.005608 
	C186.525986,65.536491 197.812119,72.813156 206.636932,84.883133 
	C208.725891,88.923943 210.814850,92.964760 212.886795,96.972679 
	C218.507812,94.850204 218.892044,93.317230 215.848648,85.291786 
	C213.641479,81.832787 211.434311,78.373787 209.044830,74.252647 
	C200.801865,64.431274 190.671677,57.648411 177.231155,54.718159 
	C174.470535,54.192299 171.709930,53.666439 168.353134,52.744026 
	C166.234131,52.859852 164.115112,52.975677 161.209183,53.008575 
M168.259979,68.623672 
	C165.835327,68.556152 163.410675,68.488632 160.209930,68.243652 
	C158.060547,68.679535 155.911179,69.115425 153.761795,69.551315 
	C153.526321,70.063194 153.290848,70.575066 153.055374,71.086945 
	C154.916092,73.074127 156.430298,75.937500 158.718948,76.842590 
	C162.129807,78.191475 166.087097,78.158623 170.244949,79.195999 
	C180.240829,82.285568 188.570511,87.950661 194.380127,96.580048 
	C197.457840,101.151581 200.639908,100.968773 205.767563,98.989502 
	C203.893509,95.420250 202.169540,92.136871 200.207947,88.187706 
	C192.296127,77.729362 182.033203,71.086319 168.259979,68.623672 
M187.473129,30.888330 
	C191.036133,32.147705 194.652084,33.276054 198.152420,34.690521 
	C209.593033,39.313622 218.698303,47.156502 227.286102,56.599091 
	C229.830521,59.868885 232.374954,63.138676 234.919373,66.408463 
	C235.502487,66.118729 236.085617,65.828987 236.668747,65.539246 
	C235.279251,62.321636 233.889771,59.104027 232.334915,55.170792 
	C225.449036,43.946217 215.630722,35.998318 203.736847,30.817961 
	C197.779526,28.223248 191.262390,26.913826 184.134125,24.891186 
	C182.378937,24.588028 180.630722,24.234098 178.867157,23.991879 
	C174.706299,23.420397 170.596451,23.155624 166.343735,27.095427 
	C173.771652,28.357525 180.304794,29.467587 187.473129,30.888330 
M234.162750,36.409286 
	C223.941605,19.381096 201.184738,9.329751 186.747421,15.948036 
	C206.604950,20.439734 223.189484,29.886608 237.471786,44.205959 
	C236.498581,41.817390 235.525360,39.428822 234.162750,36.409286 
M183.193848,92.292953 
	C176.742737,87.511177 170.129501,83.145454 160.472198,83.186783 
	C168.546326,92.936058 177.562241,98.483467 189.694000,99.003685 
	C187.712723,96.913445 185.731445,94.823212 183.193848,92.292953 
z"/>
<path fill="#000000" opacity="1.000000" stroke="none" 
	d="
M251.000000,157.000000 
	C251.000000,188.261780 251.000000,219.523560 251.000000,251.000000 
	C218.646088,251.000000 186.291702,251.000000 153.487396,250.591400 
	C160.130066,247.800064 167.142181,245.130020 174.337677,243.114655 
	C181.663391,241.062836 188.085449,237.509109 194.438141,232.886093 
	C201.174149,228.960617 207.801422,225.467804 212.468872,219.016266 
	C214.910461,217.004868 216.998932,215.021561 219.390564,212.871307 
	C221.165771,210.817459 222.637787,208.930527 224.430298,206.898804 
	C225.786041,205.656342 226.943497,204.648346 227.829330,203.441071 
	C229.343887,201.376907 230.688309,199.187927 232.421570,196.872437 
	C233.641235,194.885406 234.537186,193.074142 235.447357,191.270035 
	C236.663498,188.859436 237.890686,186.454422 239.436371,183.864838 
	C242.450531,177.120239 245.141464,170.557770 247.912613,163.597626 
	C248.342316,161.549789 248.554291,159.850815 249.113541,158.275131 
	C249.317886,157.699417 250.347107,157.416504 251.000000,157.000000 
z"/>
<path fill="#000000" opacity="1.000000" stroke="none" 
	d="
M1.000001,95.000000 
	C1.000000,63.738216 1.000000,32.476429 1.000000,1.000000 
	C33.353912,1.000000 65.708298,1.000000 98.517189,1.413686 
	C95.832748,2.608636 92.562141,3.056422 89.579666,4.233977 
	C80.790199,7.704266 71.978706,11.177900 63.456528,15.239223 
	C59.612793,17.070988 56.434586,20.299271 52.578396,22.941608 
	C44.024673,27.341295 37.082798,33.091759 31.588970,40.939194 
	C25.247978,46.367973 20.964096,53.001442 16.988573,60.327721 
	C12.081854,66.720856 8.923062,73.525803 7.083493,81.376831 
	C5.724125,85.171638 4.445770,88.584579 3.091702,92.413330 
	C2.343992,93.552750 1.671998,94.276375 1.000001,95.000000 
z"/>
<path fill="#000000" opacity="1.000000" stroke="none" 
	d="
M99.000000,251.000000 
	C66.407928,251.000000 33.815861,251.000000 1.000000,251.000000 
	C1.000000,219.979462 1.000000,188.958389 1.302269,157.143524 
	C2.387460,158.269653 3.170382,160.189590 3.971367,162.510681 
	C5.584966,167.414520 7.078064,171.957413 8.822402,176.401672 
	C9.608543,178.404648 10.895649,180.210968 11.983765,182.478546 
	C13.969249,186.249023 15.926423,189.647476 18.041126,193.378265 
	C20.099167,196.490265 21.999678,199.269897 23.954330,202.398468 
	C25.635569,204.514374 27.262671,206.281372 29.032055,208.363815 
	C30.742941,210.468430 32.311543,212.257599 33.934807,214.392548 
	C34.972984,215.525467 35.956497,216.312592 36.959053,217.062653 
	C36.978092,217.025604 36.902767,217.061234 37.012539,217.337723 
	C37.749699,218.021942 38.377087,218.429688 39.220112,218.908508 
	C39.435753,218.979568 39.885502,219.042206 39.942566,219.397156 
	C45.060600,225.398590 51.191780,229.603394 58.080208,233.354370 
	C58.908848,234.308212 59.439384,235.227936 60.213970,235.538025 
	C70.712456,239.740891 81.248085,243.850876 91.766335,248.004547 
	C94.193382,248.962982 96.589600,249.999435 99.000000,251.000000 
z"/>
<path fill="#FBDA6C" opacity="1.000000" stroke="none" 
	d="
M52.954422,22.893938 
	C56.434586,20.299271 59.612793,17.070988 63.456528,15.239223 
	C71.978706,11.177900 80.790199,7.704266 89.579666,4.233977 
	C92.562141,3.056422 95.832748,2.608636 98.985847,1.413686 
	C116.687561,1.000000 134.375122,1.000000 152.545502,1.413549 
	C157.806641,3.192844 162.584991,4.558590 167.363327,5.924335 
	C166.462219,7.179602 165.730896,8.613340 164.630966,9.659589 
	C159.560593,14.482523 154.387527,19.197485 148.462982,24.040888 
	C138.435043,23.899725 129.195297,23.671608 119.955742,23.436863 
	C114.678734,23.302792 109.401772,23.048532 104.125221,23.059294 
	C101.001724,23.065662 97.880882,23.647095 94.755653,23.681730 
	C88.040611,23.756157 81.321938,23.721766 74.607651,23.587173 
	C67.388176,23.442455 60.172024,23.132050 52.954422,22.893938 
z"/>
<path fill="#D9892B" opacity="1.000000" stroke="none" 
	d="
M99.468658,251.000000 
	C96.589600,249.999435 94.193382,248.962982 91.766335,248.004547 
	C81.248085,243.850876 70.712456,239.740891 60.213970,235.538025 
	C59.439384,235.227936 58.908848,234.308212 58.497868,233.275909 
	C68.131973,232.586639 77.531319,232.151733 86.934593,232.035706 
	C98.869560,231.888458 110.807724,232.000000 122.744507,232.000000 
	C143.740372,232.000000 164.736374,231.961609 185.731903,232.045990 
	C188.524979,232.057220 191.315536,232.691544 194.107269,233.037308 
	C188.085449,237.509109 181.663391,241.062836 174.337677,243.114655 
	C167.142181,245.130020 160.130066,247.800064 153.018738,250.591400 
	C135.312439,251.000000 117.624878,251.000000 99.468658,251.000000 
z"/>
<path fill="#E8AC48" opacity="1.000000" stroke="none" 
	d="
M251.000000,132.000000 
	C251.000000,138.354401 251.000000,144.708786 250.698730,151.338470 
	C248.894608,150.429947 247.415909,148.260330 245.884995,148.222855 
	C236.164322,147.984894 226.432068,148.212692 216.703735,148.297318 
	C208.831375,148.365784 200.959198,148.498383 193.086838,148.509109 
	C187.188660,148.517151 181.289948,148.329575 175.392426,148.369141 
	C174.747238,148.373474 174.108246,149.303680 173.242859,149.514633 
	C169.353973,144.382477 165.688629,139.540146 162.044708,134.331909 
	C163.351807,133.048233 164.629822,131.359589 165.924500,131.346725 
	C171.386856,131.292389 176.853424,131.943741 182.319824,131.964081 
	C205.212936,132.049240 228.106567,132.000000 251.000000,132.000000 
z"/>
<path fill="#E7A845" opacity="1.000000" stroke="none" 
	d="
M3.953304,162.109528 
	C3.170382,160.189590 2.387460,158.269653 1.302269,156.674866 
	C1.000000,152.975449 1.000000,148.950912 1.421044,144.441101 
	C13.383124,143.348877 24.918694,142.434967 36.466877,142.229202 
	C46.212585,142.055527 55.971985,142.744019 65.727180,142.971466 
	C70.921417,143.092575 76.119568,143.045197 81.294357,143.474335 
	C80.735497,146.126999 80.058990,148.356720 79.690742,150.636215 
	C78.983475,155.014297 76.396873,155.759995 72.551880,154.820511 
	C65.433784,153.081253 63.037987,154.279968 59.165123,161.033859 
	C56.618046,161.266373 54.511265,161.587921 52.399643,161.623672 
	C43.573334,161.773132 34.745113,161.935608 25.918510,161.894745 
	C20.644815,161.870346 15.374244,161.376007 10.099346,161.302475 
	C8.054812,161.273972 6.002223,161.823380 3.953304,162.109528 
z"/>
<path fill="#E6A643" opacity="1.000000" stroke="none" 
	d="
M173.466385,149.804459 
	C174.108246,149.303680 174.747238,148.373474 175.392426,148.369141 
	C181.289948,148.329575 187.188660,148.517151 193.086838,148.509109 
	C200.959198,148.498383 208.831375,148.365784 216.703735,148.297318 
	C226.432068,148.212692 236.164322,147.984894 245.884995,148.222855 
	C247.415909,148.260330 248.894608,150.429947 250.698730,151.806870 
	C251.000000,153.388885 251.000000,154.777786 251.000000,156.583344 
	C250.347107,157.416504 249.317886,157.699417 249.113541,158.275131 
	C248.554291,159.850815 248.342316,161.549789 247.455276,163.598816 
	C236.546600,164.318268 226.175415,164.890991 215.804352,164.889069 
	C205.238388,164.887100 194.674042,164.225342 184.105728,164.058395 
	C180.991776,164.009216 177.866760,164.659531 174.700104,164.541016 
	C174.257706,159.329987 173.862045,154.567230 173.466385,149.804459 
z"/>
<path fill="#EBB24D" opacity="1.000000" stroke="none" 
	d="
M251.000000,131.535355 
	C228.106567,132.000000 205.212936,132.049240 182.319824,131.964081 
	C176.853424,131.943741 171.386856,131.292389 165.924500,131.346725 
	C164.629822,131.359589 163.351807,133.048233 161.717957,134.250061 
	C159.503403,133.457153 157.637039,132.380203 155.770676,131.303238 
	C165.434082,129.176544 172.374496,124.302826 178.145142,116.945061 
	C181.861679,117.324104 185.138153,117.940643 188.417206,117.954643 
	C209.277817,118.043777 230.139008,118.000000 251.000000,118.000000 
	C251.000000,122.356903 251.000000,126.713806 251.000000,131.535355 
z"/>
<path fill="#E9AE49" opacity="1.000000" stroke="none" 
	d="
M81.315948,143.073868 
	C76.119568,143.045197 70.921417,143.092575 65.727180,142.971466 
	C55.971985,142.744019 46.212585,142.055527 36.466877,142.229202 
	C24.918694,142.434967 13.383124,143.348877 1.421044,143.977936 
	C1.000000,138.977905 1.000000,133.955811 1.435749,128.467026 
	C7.448510,128.004288 13.027185,127.921738 18.602209,128.028992 
	C33.115646,128.308212 47.626377,128.836029 62.140396,128.932358 
	C69.742393,128.982834 77.349037,128.334366 84.933502,128.388397 
	C83.714256,133.541458 82.515106,138.307663 81.315948,143.073868 
z"/>
<path fill="#EFBB54" opacity="1.000000" stroke="none" 
	d="
M1.000001,95.454109 
	C1.671998,94.276375 2.343992,93.552750 3.549639,92.413940 
	C34.388603,91.999176 64.693909,91.999596 94.991417,92.384583 
	C93.729866,97.196304 92.476112,101.623459 90.821762,105.890366 
	C89.290375,105.491364 88.163353,105.065201 87.028198,105.042313 
	C72.744385,104.754410 58.459431,104.334946 44.174717,104.333351 
	C29.783171,104.331741 15.391575,104.760056 1.000000,105.000000 
	C1.000000,101.969406 1.000000,98.938812 1.000001,95.454109 
z"/>
<path fill="#EDB750" opacity="1.000000" stroke="none" 
	d="
M1.000000,105.463181 
	C15.391575,104.760056 29.783171,104.331741 44.174717,104.333351 
	C58.459431,104.334946 72.744385,104.754410 87.028198,105.042313 
	C88.163353,105.065201 89.290375,105.491364 90.809624,106.284988 
	C90.307167,109.937645 89.416260,113.035431 88.072159,116.118698 
	C83.491447,116.402786 79.364998,116.940971 75.236237,116.959389 
	C55.112251,117.049156 34.987331,116.939484 14.863506,117.045547 
	C10.240788,117.069916 5.621089,117.666672 1.000000,118.000000 
	C1.000000,113.975456 1.000000,109.950912 1.000000,105.463181 
z"/>
<path fill="#EBB34C" opacity="1.000000" stroke="none" 
	d="
M1.000000,118.454109 
	C5.621089,117.666672 10.240788,117.069916 14.863506,117.045547 
	C34.987331,116.939484 55.112251,117.049156 75.236237,116.959389 
	C79.364998,116.940971 83.491447,116.402786 88.010635,116.507401 
	C87.252739,120.607590 86.103157,124.304565 84.953583,128.001541 
	C77.349037,128.334366 69.742393,128.982834 62.140396,128.932358 
	C47.626377,128.836029 33.115646,128.308212 18.602209,128.028992 
	C13.027185,127.921738 7.448510,128.004288 1.435749,128.000168 
	C1.000000,124.969406 1.000000,121.938812 1.000000,118.454109 
z"/>
<path fill="#ECB650" opacity="1.000000" stroke="none" 
	d="
M251.000000,117.539368 
	C230.139008,118.000000 209.277817,118.043777 188.417206,117.954643 
	C185.138153,117.940643 181.861679,117.324104 178.248352,116.597328 
	C178.410934,114.857185 178.909195,113.505875 179.407471,112.154572 
	C180.959915,112.240929 182.512375,112.327278 184.534424,112.750397 
	C185.662491,113.104424 186.320984,113.121696 186.979462,113.138969 
	C191.687012,113.166824 196.394547,113.194687 201.767746,113.412125 
	C203.345749,113.258522 204.258118,112.915344 205.170471,112.572174 
	C205.876938,112.419998 206.583389,112.267822 207.823486,112.270279 
	C208.951584,112.085663 209.546082,111.746422 210.140564,111.407173 
	C215.027802,109.259422 219.915054,107.111671 225.553650,104.981506 
	C228.087082,105.105713 229.867889,105.245880 231.651474,105.312897 
	C238.100479,105.555229 244.550415,105.772980 251.000000,106.000000 
	C251.000000,109.692909 251.000000,113.385818 251.000000,117.539368 
z"/>
<path fill="#000000" opacity="1.000000" stroke="none" 
	d="
M251.000000,35.531345 
	C248.584732,32.205994 246.190842,28.398167 243.750061,24.620632 
	C237.151367,14.407926 228.022369,7.424723 216.598740,3.357223 
	C215.413666,2.935267 214.319275,2.258582 213.091400,1.350045 
	C225.590256,1.000000 238.180527,1.000000 251.000000,1.000000 
	C251.000000,12.353201 251.000000,23.707941 251.000000,35.531345 
z"/>
<path fill="#ECBA53" opacity="1.000000" stroke="none" 
	d="
M251.000000,105.541931 
	C244.550415,105.772980 238.100479,105.555229 231.651474,105.312897 
	C229.867889,105.245880 228.087082,105.105713 225.883926,104.923164 
	C232.068604,99.743248 238.168350,94.182968 242.595581,86.956238 
	C243.218079,85.940109 244.957687,85.608345 246.718628,85.380211 
	C247.843796,88.250687 248.319000,90.736351 249.082977,93.129845 
	C249.322632,93.880699 250.339096,94.383606 251.000000,95.000000 
	C251.000000,98.361290 251.000000,101.722572 251.000000,105.541931 
z"/>
<path fill="#000000" opacity="1.000000" stroke="none" 
	d="
M167.693634,5.842913 
	C162.584991,4.558590 157.806641,3.192844 153.014160,1.413549 
	C160.687576,1.000000 168.375168,1.000000 176.531372,0.999997 
	C174.007965,2.587159 171.015945,4.174324 167.693634,5.842913 
z"/>
<path fill="#000000" opacity="1.000000" stroke="none" 
	d="
M251.000000,94.532394 
	C250.339096,94.383606 249.322632,93.880699 249.082977,93.129845 
	C248.319000,90.736351 247.843796,88.250687 247.088364,85.446945 
	C248.049637,82.776321 249.179611,80.459366 250.654785,78.071213 
	C251.000000,83.354927 251.000000,88.709862 251.000000,94.532394 
z"/>
<path fill="#FEFDFB" opacity="1.000000" stroke="none" 
	d="
M179.150543,111.850128 
	C178.909195,113.505875 178.410934,114.857185 177.809479,116.556229 
	C172.374496,124.302826 165.434082,129.176544 155.770676,131.303238 
	C157.637039,132.380203 159.503403,133.457153 161.696533,134.615967 
	C165.688629,139.540146 169.353973,144.382477 173.242859,149.514633 
	C173.862045,154.567230 174.257706,159.329987 174.507111,164.839706 
	C172.417435,170.005707 170.473999,174.424759 168.258789,179.012665 
	C158.080429,190.440140 145.666397,192.422653 131.469925,188.349991 
	C130.883423,190.907028 130.414230,192.952591 129.787537,195.328278 
	C128.705261,198.357193 127.780472,201.055984 126.531021,203.916779 
	C122.740982,208.027939 119.017952,207.969406 114.941849,204.457184 
	C111.510071,200.297485 113.345284,196.090973 114.128723,191.710373 
	C114.828148,189.862228 115.623817,188.283340 115.614204,186.709396 
	C115.607391,185.592087 114.752701,183.799774 113.863121,183.488022 
	C110.360847,182.260529 106.695091,181.499527 102.470680,180.404907 
	C101.444420,185.028397 100.566490,188.983643 99.462769,193.190155 
	C95.343063,198.870514 93.136200,199.471619 86.304916,196.650055 
	C85.321571,194.576981 84.443054,192.789154 83.694328,190.671570 
	C83.823700,189.872284 83.823273,189.402786 84.028641,188.749115 
	C84.325508,188.036850 84.416580,187.508743 84.641525,186.656433 
	C84.793091,185.867462 84.810768,185.402679 85.030563,184.748505 
	C85.341942,184.033661 85.451210,183.508224 85.719582,182.618408 
	C86.061089,181.210449 86.243500,180.166855 86.624359,178.852768 
	C86.208702,177.737793 85.594604,176.893311 84.770233,175.875397 
	C84.040512,175.589127 83.521065,175.476303 82.636139,175.184799 
	C77.661263,173.736099 73.096489,172.260132 68.430984,171.248886 
	C62.766441,170.021103 59.863457,166.719727 59.603195,160.991440 
	C63.037987,154.279968 65.433784,153.081253 72.551880,154.820511 
	C76.396873,155.759995 78.983475,155.014297 79.690742,150.636215 
	C80.058990,148.356720 80.735497,146.126999 81.294357,143.474335 
	C82.515106,138.307663 83.714256,133.541458 84.933495,128.388397 
	C86.103157,124.304565 87.252739,120.607590 88.463837,116.521912 
	C89.416260,113.035431 90.307167,109.937645 91.210220,106.445244 
	C92.476112,101.623459 93.729866,97.196304 95.221222,92.076080 
	C96.429489,87.710510 97.262573,83.994301 98.411392,80.378395 
	C99.458794,77.081688 98.486298,75.643173 94.781242,75.645287 
	C86.972366,72.842010 85.264511,69.743355 87.442116,61.870972 
	C90.992630,57.925472 94.962143,57.427128 99.528305,58.884083 
	C102.852699,59.944824 106.361961,60.451683 109.643166,61.615936 
	C113.912544,63.130829 115.817352,61.722488 116.472939,57.399612 
	C116.868210,54.793247 117.718140,52.203671 118.722252,49.753460 
	C120.428299,45.590355 124.365463,43.770508 128.494812,45.356804 
	C132.388794,46.852676 133.938919,50.104725 133.493576,54.141113 
	C133.277100,56.103203 132.490509,58.000172 131.987518,59.933258 
	C130.002335,67.562637 130.006104,67.563614 137.900482,68.861084 
	C138.617722,69.304245 139.183548,69.563347 139.749374,69.822441 
	C142.792145,76.632484 145.834900,83.442528 148.600098,90.577423 
	C138.044876,93.528656 127.714767,95.969284 117.509270,98.851166 
	C111.402229,100.575706 108.541481,106.019653 110.163452,111.537094 
	C111.794579,117.085648 116.958580,119.689545 123.300858,118.031441 
	C131.481873,115.892624 139.586288,113.434319 147.821289,111.537231 
	C153.981049,110.118210 157.413971,106.678032 158.101868,100.439636 
	C165.032455,104.141655 171.963028,107.843666 179.150543,111.850128 
M99.084274,147.736389 
	C96.158081,151.666046 95.983406,155.772781 98.710358,159.785126 
	C101.507248,163.900360 105.627182,164.776474 110.214699,163.570160 
	C119.226555,161.200394 128.234879,158.808548 137.191330,156.239868 
	C143.108521,154.542847 146.042969,149.532776 144.685913,144.038223 
	C143.369537,138.708328 138.031647,135.452789 132.244064,136.896912 
	C123.039413,139.193680 113.888649,141.717606 104.767609,144.328934 
	C102.924835,144.856522 101.315712,146.200211 99.084274,147.736389 
z"/>
<path fill="#F6CD62" opacity="1.000000" stroke="none" 
	d="
M137.749069,68.677025 
	C130.006104,67.563614 130.002335,67.562637 131.987518,59.933258 
	C132.490509,58.000172 133.277100,56.103203 133.493576,54.141113 
	C133.938919,50.104725 132.388794,46.852676 128.494812,45.356804 
	C124.365463,43.770508 120.428299,45.590355 118.722252,49.753460 
	C117.718140,52.203671 116.868210,54.793247 116.472939,57.399612 
	C115.817352,61.722488 113.912544,63.130829 109.643166,61.615936 
	C106.361961,60.451683 102.852699,59.944824 99.528305,58.884083 
	C94.962143,57.427128 90.992630,57.925472 87.023407,61.792297 
	C76.802933,61.354950 67.297485,60.566586 57.778515,60.335579 
	C44.246414,60.007179 30.704369,60.088520 17.166573,59.994804 
	C20.964096,53.001442 25.247978,46.367973 31.871920,41.195282 
	C40.360306,41.266876 48.207977,40.958229 56.051476,41.041672 
	C67.954903,41.168312 79.855141,41.771324 91.757294,41.788612 
	C102.030876,41.803539 112.307701,41.015175 122.578270,41.109154 
	C128.039200,41.159122 133.489899,42.328140 139.052551,43.186165 
	C139.311401,43.646919 139.527222,43.842541 139.807388,43.967152 
	C139.790268,44.409832 139.773148,44.852516 139.371475,45.726341 
	C138.880371,47.408924 138.773834,48.660355 138.667297,49.911785 
	C138.711838,54.657871 138.756393,59.403954 138.536819,64.921097 
	C138.098160,66.687103 137.923615,67.682068 137.749069,68.677025 
z"/>
<path fill="#F8D367" opacity="1.000000" stroke="none" 
	d="
M138.945221,42.992043 
	C133.489899,42.328140 128.039200,41.159122 122.578270,41.109154 
	C112.307701,41.015175 102.030876,41.803539 91.757294,41.788612 
	C79.855141,41.771324 67.954903,41.168312 56.051476,41.041672 
	C48.207977,40.958229 40.360306,41.266876 32.231556,41.143867 
	C37.082798,33.091759 44.024673,27.341295 52.578396,22.941608 
	C60.172024,23.132050 67.388176,23.442455 74.607651,23.587173 
	C81.321938,23.721766 88.040611,23.756157 94.755653,23.681730 
	C97.880882,23.647095 101.001724,23.065662 104.125221,23.059294 
	C109.401772,23.048532 114.678734,23.302792 119.955742,23.436863 
	C129.195297,23.671608 138.435043,23.899725 148.186523,24.188435 
	C146.489883,28.596907 144.281433,32.947563 141.585846,37.724041 
	C140.380890,39.763924 139.663055,41.377983 138.945221,42.992043 
z"/>
<path fill="#EDBA56" opacity="1.000000" stroke="none" 
	d="
M157.994171,100.141785 
	C157.413971,106.678032 153.981049,110.118210 147.821289,111.537231 
	C139.586288,113.434319 131.481873,115.892624 123.300858,118.031441 
	C116.958580,119.689545 111.794579,117.085648 110.163452,111.537094 
	C108.541481,106.019653 111.402229,100.575706 117.509270,98.851166 
	C127.714767,95.969284 138.044876,93.528656 148.747101,90.890610 
	C152.076599,93.867271 154.981537,96.855598 157.994171,100.141785 
z"/>
<path fill="#88DE97" opacity="1.000000" stroke="none" 
	d="
M175.985168,39.093857 
	C197.152908,41.203377 212.823761,52.132515 224.262573,69.668564 
	C220.881699,69.008911 217.800964,68.050949 214.720230,67.092979 
	C204.974625,57.534634 193.570724,50.674255 180.297363,45.741257 
	C178.586304,43.227894 177.285736,41.160877 175.985168,39.093857 
z"/>
<path fill="#B4DE5C" opacity="1.000000" stroke="none" 
	d="
M234.357452,36.724770 
	C235.525360,39.428822 236.498581,41.817390 237.471786,44.205959 
	C223.189484,29.886608 206.604950,20.439734 186.747421,15.948036 
	C201.184738,9.329751 223.941605,19.381096 234.357452,36.724770 
z"/>
<path fill="#ADE56F" opacity="1.000000" stroke="none" 
	d="
M184.998444,25.023102 
	C191.262390,26.913826 197.779526,28.223248 203.736847,30.817961 
	C215.630722,35.998318 225.449036,43.946217 231.965698,55.562595 
	C230.093002,55.954967 228.589523,55.955532 227.086060,55.956100 
	C218.698303,47.156502 209.593033,39.313622 198.152420,34.690521 
	C194.652084,33.276054 191.036133,32.147705 187.155334,30.354610 
	C186.224503,28.221626 185.611481,26.622362 184.998444,25.023102 
z"/>
<path fill="#61DBC5" opacity="1.000000" stroke="none" 
	d="
M209.227142,74.914787 
	C211.434311,78.373787 213.641479,81.832787 215.468903,85.628220 
	C212.192963,85.370117 209.296768,84.775589 206.400558,84.181061 
	C197.812119,72.813156 186.525986,65.536491 172.309967,61.571701 
	C170.245026,60.763561 168.640045,60.389320 166.974884,59.684261 
	C166.250565,58.191563 165.586456,57.029682 165.030334,55.567116 
	C166.408661,54.557808 167.678986,53.849194 168.949310,53.140579 
	C171.709930,53.666439 174.470535,54.192299 177.694000,55.170792 
	C179.129837,56.725498 179.917740,58.113056 181.105835,58.883343 
	C188.854187,63.906872 196.652771,68.856339 204.531754,73.671585 
	C205.855652,74.480690 207.650116,74.519859 209.227142,74.914787 
z"/>
<path fill="#3ACFE8" opacity="1.000000" stroke="none" 
	d="
M200.445572,88.853485 
	C202.169540,92.136871 203.893509,95.420250 205.767563,98.989502 
	C200.639908,100.968773 197.457840,101.151581 194.380127,96.580048 
	C188.570511,87.950661 180.240829,82.285568 170.021973,78.572044 
	C168.085617,76.333427 166.288712,74.796844 164.684631,73.080070 
	C163.335281,71.635918 162.210327,69.982109 160.986023,68.421112 
	C163.410675,68.488632 165.835327,68.556152 168.683807,69.133423 
	C173.589172,73.105194 177.806000,77.005226 182.621094,79.915321 
	C188.291916,83.342567 194.481140,85.912064 200.445572,88.853485 
z"/>
<path fill="#30C5E9" opacity="1.000000" stroke="none" 
	d="
M183.472015,92.512962 
	C185.731445,94.823212 187.712723,96.913445 189.694000,99.003685 
	C177.562241,98.483467 168.546326,92.936058 160.472198,83.186783 
	C170.129501,83.145454 176.742737,87.511177 183.472015,92.512962 
z"/>
<path fill="#44D0DD" opacity="1.000000" stroke="none" 
	d="
M200.326752,88.520599 
	C194.481140,85.912064 188.291916,83.342567 182.621094,79.915321 
	C177.806000,77.005226 173.589172,73.105194 169.049866,69.297409 
	C182.033203,71.086319 192.296127,77.729362 200.326752,88.520599 
z"/>
<path fill="#67D4B4" opacity="1.000000" stroke="none" 
	d="
M209.135986,74.583717 
	C207.650116,74.519859 205.855652,74.480690 204.531754,73.671585 
	C196.652771,68.856339 188.854187,63.906872 181.105835,58.883343 
	C179.917740,58.113056 179.129837,56.725498 178.075455,55.295219 
	C190.671677,57.648411 200.801865,64.431274 209.135986,74.583717 
z"/>
<path fill="#4DD3D4" opacity="1.000000" stroke="none" 
	d="
M164.922348,55.867798 
	C165.586456,57.029682 166.250565,58.191563 166.960968,59.906181 
	C167.007248,60.458916 166.994827,60.903694 166.994827,60.903694 
	C163.026367,61.112743 159.058563,61.438011 155.089035,61.460941 
	C153.877472,61.467937 151.681442,60.723515 151.637360,60.184208 
	C151.521973,58.772099 151.919144,56.494915 152.876724,55.977318 
	C155.440140,54.591713 158.404266,53.947395 161.670731,53.346951 
	C163.062302,54.412815 163.992325,55.140305 164.922348,55.867798 
z"/>
<path fill="#7BDDA6" opacity="1.000000" stroke="none" 
	d="
M214.824371,67.426559 
	C217.800964,68.050949 220.881699,69.008911 224.320587,69.990829 
	C227.943924,74.504852 227.973328,79.623825 228.121735,84.719658 
	C227.607559,84.994102 227.093369,85.268547 226.579193,85.542992 
	C222.695633,79.615379 218.812057,73.687759 214.824371,67.426559 
z"/>
<path fill="#4ECDCB" opacity="1.000000" stroke="none" 
	d="
M206.518738,84.532097 
	C209.296768,84.775589 212.192963,85.370117 215.471909,85.983742 
	C218.892044,93.317230 218.507812,94.850204 212.886795,96.972679 
	C210.814850,92.964760 208.725891,88.923943 206.518738,84.532097 
z"/>
<path fill="#34D2F4" opacity="1.000000" stroke="none" 
	d="
M160.597977,68.332382 
	C162.210327,69.982109 163.335281,71.635918 164.684631,73.080070 
	C166.288712,74.796844 168.085617,76.333427 169.805420,78.330887 
	C166.087097,78.158623 162.129807,78.191475 158.718948,76.842590 
	C156.430298,75.937500 154.916092,73.074127 153.055374,71.086945 
	C153.290848,70.575066 153.526321,70.063194 153.761795,69.551315 
	C155.911179,69.115425 158.060547,68.679535 160.597977,68.332382 
z"/>
<path fill="#7FE6AD" opacity="1.000000" stroke="none" 
	d="
M175.666885,39.008347 
	C177.285736,41.160877 178.586304,43.227894 179.942688,45.630394 
	C175.282028,45.384373 170.565567,44.802868 165.458435,43.814594 
	C163.859787,40.844959 164.770996,39.009872 167.047348,37.643616 
	C167.781128,37.567272 168.514923,37.490925 169.770386,37.802383 
	C171.540207,38.442959 172.788376,38.695724 174.036530,38.948490 
	C174.473892,38.939938 174.911240,38.931385 175.666885,39.008347 
z"/>
<path fill="#A2E57C" opacity="1.000000" stroke="none" 
	d="
M184.566284,24.957142 
	C185.611481,26.622362 186.224503,28.221626 186.837738,30.199268 
	C180.304794,29.467587 173.771652,28.357525 166.343735,27.095427 
	C170.596451,23.155624 174.706299,23.420397 178.867157,23.991879 
	C180.630722,24.234098 182.378937,24.588028 184.566284,24.957142 
z"/>
<path fill="#6CCDA4" opacity="1.000000" stroke="none" 
	d="
M166.680267,37.538872 
	C164.770996,39.009872 163.859787,40.844959 165.097687,43.713333 
	C163.061279,44.307858 160.994949,44.596882 158.393631,44.497276 
	C157.516220,42.940559 157.173828,41.772469 156.831421,40.604378 
	C159.992004,39.547630 163.152603,38.490879 166.680267,37.538872 
z"/>
<path fill="#97D476" opacity="1.000000" stroke="none" 
	d="
M227.186081,56.277596 
	C228.589523,55.955532 230.093002,55.954967 232.048370,55.920410 
	C233.889771,59.104027 235.279251,62.321636 236.668747,65.539246 
	C236.085617,65.828987 235.502487,66.118729 234.919373,66.408463 
	C232.374954,63.138676 229.830521,59.868885 227.186081,56.277596 
z"/>
<path fill="#5CBCA3" opacity="1.000000" stroke="none" 
	d="
M156.490143,40.722607 
	C157.173828,41.772469 157.516220,42.940559 157.945877,44.462639 
	C156.559464,45.245193 155.085815,45.673759 153.612152,46.102322 
	C153.283096,45.740921 152.954041,45.379517 152.624985,45.018112 
	C153.799622,43.625687 154.974243,42.233261 156.490143,40.722607 
z"/>
<path fill="#54C7BC" opacity="1.000000" stroke="none" 
	d="
M165.030334,55.567112 
	C163.992325,55.140305 163.062302,54.412815 162.064194,53.388416 
	C164.115112,52.975677 166.234131,52.859852 168.651215,52.942299 
	C167.678986,53.849194 166.408661,54.557808 165.030334,55.567112 
z"/>
<path fill="#D4B15C" opacity="1.000000" stroke="none" 
	d="
M139.052567,43.186169 
	C139.663055,41.377983 140.380890,39.763924 141.407028,38.045097 
	C141.218094,39.760582 140.720856,41.580833 140.015503,43.684116 
	C139.527222,43.842541 139.311401,43.646919 139.052567,43.186169 
z"/>
<path fill="#D4B15C" opacity="1.000000" stroke="none" 
	d="
M137.900482,68.861084 
	C137.923615,67.682068 138.098160,66.687103 138.489288,65.391167 
	C139.102310,66.437256 139.498734,67.784325 139.822266,69.476913 
	C139.183548,69.563347 138.617722,69.304245 137.900482,68.861084 
z"/>
<path fill="#54C7BC" opacity="1.000000" stroke="none" 
	d="
M167.343094,61.024094 
	C166.994827,60.903694 167.007248,60.458916 167.021164,60.237000 
	C168.640045,60.389320 170.245026,60.763561 171.944748,61.430710 
	C170.590118,61.530582 169.140747,61.337540 167.343094,61.024094 
z"/>
<path fill="#6CCDA4" opacity="1.000000" stroke="none" 
	d="
M173.806396,38.712021 
	C172.788376,38.695724 171.540207,38.442959 170.126450,37.914425 
	C171.165985,37.917622 172.371140,38.196587 173.806396,38.712021 
z"/>
<path fill="#D4B15C" opacity="1.000000" stroke="none" 
	d="
M138.893707,49.643753 
	C138.773834,48.660355 138.880371,47.408924 139.261520,46.041897 
	C139.397461,47.076111 139.258789,48.225918 138.893707,49.643753 
z"/>
<path fill="#AC8743" opacity="1.000000" stroke="none" 
	d="
M204.845123,112.478653 
	C204.258118,112.915344 203.345749,113.258522 202.236526,113.407761 
	C202.866379,112.937584 203.693085,112.661354 204.845123,112.478653 
z"/>
<path fill="#AC8743" opacity="1.000000" stroke="none" 
	d="
M209.848633,111.349373 
	C209.546082,111.746422 208.951584,112.085663 208.185928,112.256775 
	C208.528748,111.822952 209.042725,111.557259 209.848633,111.349373 
z"/>
<path fill="#AC8743" opacity="1.000000" stroke="none" 
	d="
M186.769440,112.917313 
	C186.320984,113.121696 185.662491,113.104424 184.908905,112.870918 
	C185.395676,112.668343 185.977554,112.681999 186.769440,112.917313 
z"/>
<path fill="#DC8E2F" opacity="1.000000" stroke="none" 
	d="
M194.438141,232.886093 
	C191.315536,232.691544 188.524979,232.057220 185.731903,232.045990 
	C164.736374,231.961609 143.740372,232.000000 122.744507,232.000000 
	C110.807724,232.000000 98.869560,231.888458 86.934593,232.035706 
	C77.531319,232.151733 68.131973,232.586639 58.313225,232.958374 
	C51.191780,229.603394 45.060600,225.398590 40.382927,219.387878 
	C41.431026,219.035263 42.096931,219.026352 42.760487,219.061569 
	C53.943157,219.654999 65.119698,220.504608 76.309990,220.765228 
	C84.016739,220.944702 91.741707,220.130905 99.459938,220.098984 
	C105.013512,220.076004 110.571289,220.873779 116.123817,220.834091 
	C124.342575,220.775391 132.560272,220.010742 140.774948,220.065704 
	C153.980804,220.154068 167.187210,221.017288 180.386917,220.888672 
	C190.968201,220.785583 201.539841,219.696106 212.115768,219.044357 
	C207.801422,225.467804 201.174149,228.960617 194.438141,232.886093 
z"/>
<path fill="#DE9333" opacity="1.000000" stroke="none" 
	d="
M115.094482,204.793182 
	C119.017952,207.969406 122.740982,208.027939 126.850159,204.205978 
	C129.444427,204.555435 131.391998,204.935516 133.345901,204.971344 
	C140.079605,205.094864 146.817413,205.015350 153.550079,205.169540 
	C160.921005,205.338333 168.288895,205.913940 175.656372,205.883911 
	C183.524353,205.851868 191.388184,205.218674 199.258148,205.052246 
	C202.692719,204.979614 206.143799,205.347473 209.577087,205.637360 
	C214.426346,206.046783 219.266037,206.569397 224.109818,207.043610 
	C222.637787,208.930527 221.165771,210.817459 219.012802,212.806213 
	C215.046722,212.938690 211.761581,212.995407 208.476440,212.995972 
	C171.904190,213.002319 135.331818,212.949692 98.759781,213.037674 
	C90.313286,213.057983 81.867271,213.790970 73.422226,213.767517 
	C62.528400,213.737289 51.636517,213.231262 40.741802,213.050156 
	C39.166798,213.023956 37.580673,213.666382 35.646370,214.004303 
	C34.822075,214.021744 34.351112,214.034256 33.880142,214.046768 
	C32.311543,212.257599 30.742941,210.468430 29.391407,208.205994 
	C32.367085,207.664581 35.125420,207.552353 37.884342,207.535263 
	C59.831017,207.399353 81.779457,207.390045 103.722977,207.054657 
	C107.524117,206.996567 111.304504,205.581482 115.094482,204.793182 
z"/>
<path fill="#DD9132" opacity="1.000000" stroke="none" 
	d="
M35.999695,213.999390 
	C37.580673,213.666382 39.166798,213.023956 40.741802,213.050156 
	C51.636517,213.231262 62.528400,213.737289 73.422226,213.767517 
	C81.867271,213.790970 90.313286,213.057983 98.759781,213.037674 
	C135.331818,212.949692 171.904190,213.002319 208.476440,212.995972 
	C211.761581,212.995407 215.046722,212.938690 218.709625,212.973145 
	C216.998932,215.021561 214.910461,217.004868 212.468872,219.016266 
	C201.539841,219.696106 190.968201,220.785583 180.386917,220.888672 
	C167.187210,221.017288 153.980804,220.154068 140.774948,220.065704 
	C132.560272,220.010742 124.342575,220.775391 116.123817,220.834091 
	C110.571289,220.873779 105.013512,220.076004 99.459938,220.098984 
	C91.741707,220.130905 84.016739,220.944702 76.309990,220.765228 
	C65.119698,220.504608 53.943157,219.654999 42.760487,219.061569 
	C42.096931,219.026352 41.431026,219.035263 40.325859,219.032928 
	C39.885502,219.042206 39.435753,218.979568 39.135933,218.616791 
	C38.191669,217.856415 37.547218,217.458817 36.902767,217.061234 
	C36.902767,217.061234 36.978092,217.025604 36.933517,216.736755 
	C36.592525,215.631744 36.296112,214.815567 35.999695,213.999390 
z"/>
<path fill="#E19B3B" opacity="1.000000" stroke="none" 
	d="
M129.945038,194.998169 
	C130.414230,192.952591 130.883423,190.907028 131.469925,188.349991 
	C145.666397,192.422653 158.080429,190.440140 168.709351,179.052155 
	C171.557648,179.254059 173.689331,179.901489 175.808517,179.862839 
	C186.022202,179.676605 196.231110,179.237015 206.444565,179.025009 
	C212.859924,178.891830 219.333069,178.500549 225.681000,179.168594 
	C230.370590,179.662125 236.304901,177.942123 239.113129,184.046997 
	C237.890686,186.454422 236.663498,188.859436 235.447357,191.270035 
	C234.537186,193.074142 233.641235,194.885406 232.098129,196.688263 
	C228.900513,195.788727 226.350342,194.140610 223.785843,194.117981 
	C200.860382,193.915710 177.932190,194.041153 155.005402,193.938736 
	C152.607498,193.928024 150.221817,193.017227 147.814529,192.620911 
	C146.196167,192.354477 144.484024,191.884918 142.928329,192.158142 
	C138.568771,192.923828 134.268631,194.027710 129.945038,194.998169 
z"/>
<path fill="#DF9736" opacity="1.000000" stroke="none" 
	d="
M129.787537,195.328278 
	C134.268631,194.027710 138.568771,192.923828 142.928329,192.158142 
	C144.484024,191.884918 146.196167,192.354477 147.814529,192.620911 
	C150.221817,193.017227 152.607498,193.928024 155.005402,193.938736 
	C177.932190,194.041153 200.860382,193.915710 223.785843,194.117981 
	C226.350342,194.140610 228.900513,195.788727 231.780762,196.867203 
	C230.688309,199.187927 229.343887,201.376907 227.829330,203.441071 
	C226.943497,204.648346 225.786041,205.656342 224.430298,206.898804 
	C219.266037,206.569397 214.426346,206.046783 209.577087,205.637360 
	C206.143799,205.347473 202.692719,204.979614 199.258148,205.052246 
	C191.388184,205.218674 183.524353,205.851868 175.656372,205.883911 
	C168.288895,205.913940 160.921005,205.338333 153.550079,205.169540 
	C146.817413,205.015350 140.079605,205.094864 133.345901,204.971344 
	C131.391998,204.935516 129.444427,204.555435 127.174820,204.043945 
	C127.780472,201.055984 128.705261,198.357193 129.787537,195.328278 
z"/>
<path fill="#E3A13E" opacity="1.000000" stroke="none" 
	d="
M239.436356,183.864838 
	C236.304901,177.942123 230.370590,179.662125 225.681000,179.168594 
	C219.333069,178.500549 212.859924,178.891830 206.444565,179.025009 
	C196.231110,179.237015 186.022202,179.676605 175.808517,179.862839 
	C173.689331,179.901489 171.557648,179.254059 168.981140,178.883301 
	C170.473999,174.424759 172.417435,170.005707 174.553833,165.287964 
	C177.866760,164.659531 180.991776,164.009216 184.105728,164.058395 
	C194.674042,164.225342 205.238388,164.887100 215.804352,164.889069 
	C226.175415,164.890991 236.546600,164.318268 247.375061,163.996521 
	C245.141464,170.557770 242.450531,177.120239 239.436356,183.864838 
z"/>
<path fill="#F3C55C" opacity="1.000000" stroke="none" 
	d="
M16.988573,60.327721 
	C30.704369,60.088520 44.246414,60.007179 57.778515,60.335579 
	C67.297485,60.566586 76.802933,61.354950 86.733124,61.973118 
	C85.264511,69.743355 86.972366,72.842010 94.695282,76.034256 
	C93.232399,77.433693 91.617401,78.821297 89.947823,78.890419 
	C83.531174,79.156059 77.097038,78.999771 70.669426,78.999893 
	C54.223759,79.000206 37.776001,78.854591 21.333746,79.091499 
	C16.602507,79.159668 11.887147,80.329987 7.164506,80.994980 
	C8.923062,73.525803 12.081854,66.720856 16.988573,60.327721 
z"/>
<path fill="#F1C057" opacity="1.000000" stroke="none" 
	d="
M7.083493,81.376831 
	C11.887147,80.329987 16.602507,79.159668 21.333746,79.091499 
	C37.776001,78.854591 54.223759,79.000206 70.669426,78.999893 
	C77.097038,78.999771 83.531174,79.156059 89.947823,78.890419 
	C91.617401,78.821297 93.232399,77.433693 94.958420,76.262695 
	C98.486298,75.643173 99.458794,77.081688 98.411392,80.378395 
	C97.262573,83.994301 96.429489,87.710510 95.229019,91.691513 
	C64.693909,91.999596 34.388603,91.999176 3.625354,91.998138 
	C4.445770,88.584579 5.724125,85.171638 7.083493,81.376831 
z"/>
<path fill="#E3A13F" opacity="1.000000" stroke="none" 
	d="
M59.165123,161.033859 
	C59.863457,166.719727 62.766441,170.021103 68.430984,171.248886 
	C73.096489,172.260132 77.661263,173.736099 82.703156,175.418274 
	C83.750595,175.903214 84.365555,175.976028 84.980507,176.048828 
	C85.594604,176.893311 86.208702,177.737793 86.196686,178.837494 
	C74.836861,182.481323 63.837158,180.636368 52.935993,180.762558 
	C39.689392,180.915863 26.443155,181.104111 13.197501,181.322388 
	C12.779294,181.329285 12.369287,181.833908 11.955457,182.106506 
	C10.895649,180.210968 9.608543,178.404648 8.822402,176.401672 
	C7.078064,171.957413 5.584966,167.414520 3.971366,162.510681 
	C6.002223,161.823380 8.054812,161.273972 10.099346,161.302475 
	C15.374244,161.376007 20.644815,161.870346 25.918510,161.894745 
	C34.745113,161.935608 43.573334,161.773132 52.399643,161.623672 
	C54.511265,161.587921 56.618046,161.266373 59.165123,161.033859 
z"/>
<path fill="#E19B3A" opacity="1.000000" stroke="none" 
	d="
M11.983766,182.478546 
	C12.369287,181.833908 12.779294,181.329285 13.197501,181.322388 
	C26.443155,181.104111 39.689392,180.915863 52.935993,180.762558 
	C63.837158,180.636368 74.836861,182.481323 85.998230,179.107971 
	C86.243500,180.166855 86.061089,181.210449 85.493301,182.684723 
	C85.014763,183.722916 84.921608,184.330414 84.828445,184.937912 
	C84.810768,185.402679 84.793091,185.867462 84.420349,186.727310 
	C83.984482,187.726013 83.903664,188.329651 83.822845,188.933273 
	C83.823273,189.402786 83.823700,189.872284 83.329727,190.699036 
	C78.472527,191.704178 74.124268,192.726959 69.742905,192.896988 
	C65.151199,193.075195 60.524590,192.154617 55.918751,192.206268 
	C43.238823,192.348450 30.561781,192.748108 17.883598,193.045914 
	C15.926423,189.647476 13.969249,186.249023 11.983766,182.478546 
z"/>
<path fill="#DF9535" opacity="1.000000" stroke="none" 
	d="
M114.941849,204.457184 
	C111.304504,205.581482 107.524117,206.996567 103.722977,207.054657 
	C81.779457,207.390045 59.831017,207.399353 37.884342,207.535263 
	C35.125420,207.552353 32.367085,207.664581 29.249123,207.890533 
	C27.262671,206.281372 25.635569,204.514374 24.250187,202.161469 
	C26.486835,201.163818 28.468018,200.524246 30.480471,200.402786 
	C32.599609,200.274872 34.751541,200.803223 36.884087,200.764679 
	C45.399170,200.610794 53.912163,200.187515 62.426174,200.180908 
	C68.223190,200.176392 74.042732,201.101089 79.806816,200.784363 
	C82.071457,200.659943 84.212448,198.285217 86.409744,196.935287 
	C93.136200,199.471619 95.343063,198.870514 99.929291,193.205338 
	C105.041290,192.640076 109.460968,192.310913 113.880638,191.981750 
	C113.345284,196.090973 111.510071,200.297485 114.941849,204.457184 
z"/>
<path fill="#E09837" opacity="1.000000" stroke="none" 
	d="
M86.304916,196.650055 
	C84.212448,198.285217 82.071457,200.659943 79.806816,200.784363 
	C74.042732,201.101089 68.223190,200.176392 62.426174,200.180908 
	C53.912163,200.187515 45.399170,200.610794 36.884087,200.764679 
	C34.751541,200.803223 32.599609,200.274872 30.480471,200.402786 
	C28.468018,200.524246 26.486835,201.163818 24.196047,201.812561 
	C21.999678,199.269897 20.099167,196.490265 18.041126,193.378265 
	C30.561781,192.748108 43.238823,192.348450 55.918751,192.206268 
	C60.524590,192.154617 65.151199,193.075195 69.742905,192.896988 
	C74.124268,192.726959 78.472527,191.704178 83.199936,191.028793 
	C84.443054,192.789154 85.321571,194.576981 86.304916,196.650055 
z"/>
<path fill="#DC8E2F" opacity="1.000000" stroke="none" 
	d="
M35.646370,214.004303 
	C36.296112,214.815567 36.592525,215.631744 36.914474,216.773819 
	C35.956497,216.312592 34.972984,215.525467 33.934807,214.392548 
	C34.351112,214.034256 34.822075,214.021744 35.646370,214.004303 
z"/>
<path fill="#DC8E2F" opacity="1.000000" stroke="none" 
	d="
M37.012539,217.337723 
	C37.547218,217.458817 38.191669,217.856415 38.920296,218.545715 
	C38.377087,218.429688 37.749699,218.021942 37.012539,217.337723 
z"/>
<path fill="#E8AC4B" opacity="1.000000" stroke="none" 
	d="
M99.341568,147.452011 
	C101.315712,146.200211 102.924835,144.856522 104.767609,144.328934 
	C113.888649,141.717606 123.039413,139.193680 132.244064,136.896912 
	C138.031647,135.452789 143.369537,138.708328 144.685913,144.038223 
	C146.042969,149.532776 143.108521,154.542847 137.191330,156.239868 
	C128.234879,158.808548 119.226555,161.200394 110.214699,163.570160 
	C105.627182,164.776474 101.507248,163.900360 98.710358,159.785126 
	C95.983406,155.772781 96.158081,151.666046 99.341568,147.452011 
z"/>
<path fill="#E29F43" opacity="1.000000" stroke="none" 
	d="
M114.128723,191.710373 
	C109.460968,192.310913 105.041290,192.640076 100.155090,192.954056 
	C100.566490,188.983643 101.444420,185.028397 102.470680,180.404907 
	C106.695091,181.499527 110.360847,182.260529 113.863121,183.488022 
	C114.752701,183.799774 115.607391,185.592087 115.614204,186.709396 
	C115.623817,188.283340 114.828148,189.862228 114.128723,191.710373 
z"/>
<path fill="#E29F43" opacity="1.000000" stroke="none" 
	d="
M84.028641,188.749115 
	C83.903664,188.329651 83.984482,187.726013 84.286469,187.051514 
	C84.416580,187.508743 84.325508,188.036850 84.028641,188.749115 
z"/>
<path fill="#E29F43" opacity="1.000000" stroke="none" 
	d="
M85.030563,184.748505 
	C84.921608,184.330414 85.014763,183.722916 85.334198,183.049103 
	C85.451210,183.508224 85.341942,184.033661 85.030563,184.748505 
z"/>
<path fill="#E29F43" opacity="1.000000" stroke="none" 
	d="
M84.770233,175.875397 
	C84.365555,175.976028 83.750595,175.903214 83.068626,175.596924 
	C83.521065,175.476303 84.040512,175.589127 84.770233,175.875397 
z"/>
</svg>