<svg width="48" height="48" viewBox="0 0 48 48" fill="none" xmlns="http://www.w3.org/2000/svg">
<path d="M20.4383 37.0599L16.7617 36.1289L15.4081 41.4746L19.0846 42.4056L20.4383 37.0599Z" fill="#664AED"/>
<path d="M26.8074 38.6693L23.1309 37.7383L21.7772 43.084L25.4538 44.015L26.8074 38.6693Z" fill="#146AF4"/>
<path d="M34.9227 6.57944L31.2461 5.64844L29.8924 10.9942L33.569 11.9252L34.9227 6.57944Z" fill="#146AF4"/>
<path d="M28.5809 4.95444L24.9043 4.02344L23.5506 9.36915L27.2272 10.3002L28.5809 4.95444Z" fill="#664AED"/>
<path d="M28.5216 39.1221L9.53516 34.3057L10.6753 29.7918L29.6617 34.6082C31.2905 35.027 32.9192 34.1196 33.2915 32.6072C33.6638 31.0948 32.6632 29.5358 31.0345 29.117L19.168 26.1155L20.3081 21.6016L32.1746 24.6031C36.4559 25.6967 39.1317 29.8383 38.1079 33.8171C37.0841 37.7959 32.7796 40.1925 28.4983 39.0989L28.5216 39.1221Z" fill="#9077ED"/>
<path d="M27.2224 10.3149L21.0195 8.74414L14.2398 35.5178L20.4426 37.0885L27.2224 10.3149Z" fill="#664AED"/>
<path d="M29.1982 26.2541L17.3317 23.2526L18.4718 18.7386L30.3383 21.7402C31.9671 22.159 33.5958 21.2515 33.9681 19.7391C34.3404 18.2267 33.3399 16.6678 31.7111 16.249L15.1445 12.0608L16.2846 7.54688L32.8513 11.7351C37.1325 12.8286 39.8083 16.9703 38.7845 20.9491C37.7607 24.9278 33.4562 27.3244 29.175 26.2308L29.1982 26.2541Z" fill="#9FF7EC"/>
<path d="M27.195 10.2973L20.9922 8.72656L19.6956 13.8467L25.8985 15.4174L27.195 10.2973Z" fill="#664AED"/>
</svg>
